<svg xmlns="http://www.w3.org/2000/svg" viewBox="0 0 1200 630"><defs><style>.cls-1{isolation:isolate;}.cls-2{fill:#f0c764;}.cls-3{fill:#fdeccd;}.cls-3,.cls-5,.cls-9{opacity:0.48;}.cls-4{fill:#f1843b;}.cls-5{fill:#e27e5a;}.cls-17,.cls-6,.cls-8{fill:#233550;}.cls-7{fill:#e07548;}.cls-15,.cls-16,.cls-8{opacity:0.3;}.cls-12,.cls-14,.cls-15,.cls-16,.cls-17,.cls-8{mix-blend-mode:multiply;}.cls-9{fill:#efe1cb;}.cls-10{fill:#bb5b8f;}.cls-11,.cls-12{fill:#efc3e5;}.cls-12,.cls-14{opacity:0.45;}.cls-13,.cls-14,.cls-15{fill:#e5a9cf;}</style></defs><title>brain</title><g class="cls-1"><g id="OBJECTS"><rect class="cls-2" y="-0.9" width="1200" height="636.14"/><path class="cls-3" d="M1127.25,186.42c6.8-17.55,24.28-33.22,34.34-50.28,11.55-19.62,13-41,4.1-61.07-7.89-17.78-24.48-34.83-50.66-45.93C1069.31,9.74,1005.12,12,949.16,19.36s-112.09,19-169.24,15.47c-58.43-3.67-111.15-23-169.77-25.52-83.4-3.56-162,27.45-245.45,24.58C312.73,32.1,264.07,17.23,212,16.68c-86.24-.91-164.59,44.76-158.88,92.6,2.34,19.58,16.44,38.06,24.19,57.21a91.75,91.75,0,0,1,0,70.25C63,272.14,26.82,306.93,40.43,342.42c12,31.26,61.22,56.48,63.13,88.42,2.18,36.58-51.41,65.91-54.7,102.44-3.11,34.59,28.55,69.19,91.86,79.52,93.93,15.31,192.25-30.47,287.75-18.5,22.44,2.81,42.88,8.72,64,13.5,109.34,24.67,209.17-16.86,318.54-15.87,78.92.72,157.21,25.38,233.42,14,67.11-10,114-49.17,111-87.77-1.88-24-20.21-46.71-24.78-70.58-9-46.92,35.64-92.91,29.66-140-5.21-41-48.56-80.71-33.2-120.91C1127.2,186.57,1127.22,186.49,1127.25,186.42Z"/><path class="cls-2" d="M158.05,58.64a3.77,3.77,0,0,0,1.5-.55,3.07,3.07,0,0,0,1.16-1.38A6.76,6.76,0,0,0,161,53.3a18.28,18.28,0,0,0-.75-3.39,17.7,17.7,0,0,0-1.43-3.15,10.5,10.5,0,0,0-2-2.63,3.83,3.83,0,0,0-3-1.1,4.93,4.93,0,0,0-2.46,1.17,24.89,24.89,0,0,0-3.41,3.33,18.35,18.35,0,0,0-3.27-3.72,17.59,17.59,0,0,0-2.19-1.9l.42-.48c.57-.66,1.44-1.56,2.46-2.8a12.09,12.09,0,0,0,1.48-2.24,4.52,4.52,0,0,0,.5-1.58,3.08,3.08,0,0,0-.41-1.84,6.43,6.43,0,0,0-2.8-2.27,25.89,25.89,0,0,0-3.29-1.43,13.93,13.93,0,0,0-7-.95A4.36,4.36,0,0,0,130.9,30a4.36,4.36,0,0,0-.61,2.82,30.85,30.85,0,0,0,.84,4.74,20.3,20.3,0,0,0-5.34,0,18.19,18.19,0,0,0-3.73,1,21.69,21.69,0,0,0-1.25-4.68,4.85,4.85,0,0,0-1.52-2.25,3.86,3.86,0,0,0-3.19-.6A10.08,10.08,0,0,0,113,32.25a16.57,16.57,0,0,0-2.83,2,17.13,17.13,0,0,0-2.37,2.54,6.58,6.58,0,0,0-1.48,3.07,3.11,3.11,0,0,0,.29,1.78,3.77,3.77,0,0,0,1,1.24,24.85,24.85,0,0,0,2.07,1.41c1.24.79,2.26,1.42,3,1.83a22.16,22.16,0,0,0-1.41,2.53A19.33,19.33,0,0,0,109.61,55c-.78-.28-2.11-.66-3.91-1.09A5.15,5.15,0,0,0,103,54a3.87,3.87,0,0,0-2.17,2.39,10.39,10.39,0,0,0-.56,3.26,17.82,17.82,0,0,0,.21,3.47,18.62,18.62,0,0,0,.9,3.34,6.86,6.86,0,0,0,1.85,2.89,3.07,3.07,0,0,0,1.66.69,4.14,4.14,0,0,0,1.59-.22c.92-.33,1.6-.72,2.29-1,1.56-.74,2.77-1.35,3.5-1.77a20.78,20.78,0,0,0,6.42,7c-.44.68-1,1.58-1.62,2.66-.37.67-.8,1.32-1.21,2.21a3.89,3.89,0,0,0-.36,1.56,3.11,3.11,0,0,0,.55,1.72,6.86,6.86,0,0,0,2.73,2.07A17.48,17.48,0,0,0,122,85.47a15.79,15.79,0,0,0,3.43.5,10.1,10.1,0,0,0,3.29-.28,3.93,3.93,0,0,0,2.57-2,5,5,0,0,0,.33-2.7c-.18-1.22-.36-2.22-.52-3,.56,0,1.11,0,1.67-.06.31,0,.63,0,.93-.06l.94-.16a.29.29,0,0,1,.13,0l.57-.11h0a19.36,19.36,0,0,0,6.09-2.29c.43.72,1.06,1.69,1.86,2.87.45.62.84,1.3,1.47,2a4,4,0,0,0,1.25,1,3.05,3.05,0,0,0,1.79.25,6.68,6.68,0,0,0,3-1.55,17.76,17.76,0,0,0,2.48-2.43,17.11,17.11,0,0,0,1.94-2.88,10.16,10.16,0,0,0,1.17-3.09,3.88,3.88,0,0,0-.67-3.17,5,5,0,0,0-2.28-1.47c-1.64-.51-2.92-.85-3.74-1,.15-.35.3-.7.44-1.07a20.68,20.68,0,0,0,1-6,39.64,39.64,0,0,0,4.4,0A24.47,24.47,0,0,0,158.05,58.64Zm-25.89,5.18a8,8,0,0,1-5.23-1.07,7.53,7.53,0,0,1-3.27-4.17,7,7,0,0,1,.26-4.91,7.1,7.1,0,0,1,3-3.34,6.69,6.69,0,0,1,3.9-.75,9.2,9.2,0,0,1,2.36.5h.05a9.89,9.89,0,0,1,1.45.82,7.27,7.27,0,0,1,2.33,2.43,7,7,0,0,1,1,3.88,7.53,7.53,0,0,1-.39,2.18,6.88,6.88,0,0,1-5.47,4.42Z"/><path class="cls-4" d="M498.14,69.05a2.22,2.22,0,0,0,.79-.55,1.77,1.77,0,0,0,.45-1,4.07,4.07,0,0,0-.37-2,10.63,10.63,0,0,0-1-1.85A10.09,10.09,0,0,0,496.7,62a6.39,6.39,0,0,0-1.58-1.21,2.31,2.31,0,0,0-1.95-.16,2.89,2.89,0,0,0-1.24,1.07,14.23,14.23,0,0,0-1.46,2.48A11.31,11.31,0,0,0,488,62.55a11.63,11.63,0,0,0-1.58-.76l.17-.35c.22-.47.59-1.14,1-2a6.87,6.87,0,0,0,.5-1.53,2.54,2.54,0,0,0,0-1,1.78,1.78,0,0,0-.53-1,3.93,3.93,0,0,0-2-.88,17.94,17.94,0,0,0-2.15-.31,8.46,8.46,0,0,0-4.21.55,2.66,2.66,0,0,0-1.43,1.44,2.6,2.6,0,0,0,.09,1.74A18.19,18.19,0,0,0,479.13,61a12.47,12.47,0,0,0-3.11.85,10.84,10.84,0,0,0-2,1.16,12.62,12.62,0,0,0-1.46-2.53,3,3,0,0,0-1.25-1.07,2.32,2.32,0,0,0-1.94.16,6.26,6.26,0,0,0-1.59,1.21,10.55,10.55,0,0,0-1.33,1.61,10.71,10.71,0,0,0-1,1.86,4,4,0,0,0-.37,2,1.84,1.84,0,0,0,.45,1,2.35,2.35,0,0,0,.79.56c.54.23,1,.35,1.43.49.85.27,1.54.47,2,.59a15.63,15.63,0,0,0-.42,1.7,12,12,0,0,0,0,4c-.49,0-1.33,0-2.45,0a3.09,3.09,0,0,0-1.56.5,2.33,2.33,0,0,0-.89,1.74,6.29,6.29,0,0,0,.19,2,10.84,10.84,0,0,0,.67,2,10.65,10.65,0,0,0,1.06,1.8A4,4,0,0,0,467.91,84a1.88,1.88,0,0,0,1.07.14,2.66,2.66,0,0,0,.9-.38c.48-.34.82-.67,1.17-1,.79-.68,1.4-1.23,1.75-1.59a12.8,12.8,0,0,0,4.86,3.09c-.15.46-.33,1.07-.52,1.8-.11.45-.26.89-.36,1.48a2.31,2.31,0,0,0,0,1,1.9,1.9,0,0,0,.59.91,4,4,0,0,0,1.92.77,10.41,10.41,0,0,0,4.16-.08,6.17,6.17,0,0,0,1.87-.68,2.33,2.33,0,0,0,1.18-1.56,3,3,0,0,0-.23-1.62c-.3-.69-.56-1.24-.78-1.66l1-.31c.18-.06.36-.11.54-.18l.52-.24.07,0,.31-.15h0a11.67,11.67,0,0,0,3.18-2.3c.37.35.89.82,1.54,1.38.36.29.7.62,1.18,1a2.69,2.69,0,0,0,.89.38,1.93,1.93,0,0,0,1.08-.14,3.93,3.93,0,0,0,1.52-1.39,10.65,10.65,0,0,0,1.06-1.8,10.14,10.14,0,0,0,.67-2,6.3,6.3,0,0,0,.2-2,2.34,2.34,0,0,0-.9-1.74,3.06,3.06,0,0,0-1.56-.5c-1,0-1.83,0-2.33,0,0-.23.06-.46.08-.69a12.18,12.18,0,0,0-.4-3.65,23.79,23.79,0,0,0,2.56-.7C497.14,69.4,497.6,69.29,498.14,69.05Zm-14.25,7.12a4.82,4.82,0,0,1-3.21.21,4.54,4.54,0,0,1-2.57-1.91,4.16,4.16,0,0,1-.62-2.9,4.27,4.27,0,0,1,1.24-2.43,4,4,0,0,1,2.15-1,5.65,5.65,0,0,1,1.45-.09h0a5.89,5.89,0,0,1,1,.25,4.43,4.43,0,0,1,1.74,1,4.32,4.32,0,0,1,1.18,2.11,4.89,4.89,0,0,1,.12,1.33A4.3,4.3,0,0,1,486,74.1,4.2,4.2,0,0,1,483.89,76.17Z"/><path class="cls-5" d="M1113.26,576.59a3.58,3.58,0,0,0,.13,1.53,2.92,2.92,0,0,0,1,1.42,6.48,6.48,0,0,0,3.09,1.12,17.43,17.43,0,0,0,3.33.15,17.26,17.26,0,0,0,3.29-.53,10.31,10.31,0,0,0,3-1.21,3.7,3.7,0,0,0,1.78-2.56,4.77,4.77,0,0,0-.46-2.57,25,25,0,0,0-2.24-4,17.71,17.71,0,0,0,4.27-2.11,18,18,0,0,0,2.32-1.55l.34.51c.47.69,1.09,1.73,2,3a11.91,11.91,0,0,0,1.71,1.93,4.24,4.24,0,0,0,1.34.86,2.87,2.87,0,0,0,1.81.08,6.24,6.24,0,0,0,2.82-2,26.46,26.46,0,0,0,2.14-2.7,13.4,13.4,0,0,0,2.64-6.24,4.13,4.13,0,0,0-.82-3.13,4.19,4.19,0,0,0-2.46-1.28,29.65,29.65,0,0,0-4.62-.4,20.4,20.4,0,0,0,1.35-5,17.76,17.76,0,0,0,0-3.72,20.09,20.09,0,0,0,4.66,0,4.67,4.67,0,0,0,2.47-.85,3.73,3.73,0,0,0,1.36-2.81,9.94,9.94,0,0,0-.39-3.16,15.92,15.92,0,0,0-1.15-3.12,16.16,16.16,0,0,0-1.76-2.84,6.43,6.43,0,0,0-2.49-2.15,2.91,2.91,0,0,0-1.72-.18,3.61,3.61,0,0,0-1.41.65,21.19,21.19,0,0,0-1.83,1.57c-1,.94-1.89,1.73-2.45,2.31a20.43,20.43,0,0,0-2-1.94,18.65,18.65,0,0,0-5.44-3.19c.44-.65,1.14-1.79,2-3.36a4.9,4.9,0,0,0,.58-2.56,3.76,3.76,0,0,0-1.68-2.62,9.86,9.86,0,0,0-2.89-1.33,16.2,16.2,0,0,0-3.27-.68,17.64,17.64,0,0,0-3.33,0,6.48,6.48,0,0,0-3.14,1,2.91,2.91,0,0,0-1.06,1.37,3.87,3.87,0,0,0-.2,1.53c.08.94.26,1.67.38,2.39.3,1.63.56,2.91.77,3.69a20.08,20.08,0,0,0-8.16,4.2c-.52-.58-1.22-1.31-2.07-2.18-.52-.5-1-1.07-1.74-1.67a3.67,3.67,0,0,0-1.36-.73,3,3,0,0,0-1.74.08,6.52,6.52,0,0,0-2.6,2,16.63,16.63,0,0,0-3.25,5.8,10.1,10.1,0,0,0-.56,3.12,3.75,3.75,0,0,0,1.18,2.88,4.76,4.76,0,0,0,2.43,1q1.77.21,2.91.27c-.13.52-.23,1-.35,1.56-.07.3-.14.6-.19.89l-.08.91s0,.08,0,.12a5.27,5.27,0,0,0,0,.56h0a18.84,18.84,0,0,0,.6,6.24c-.78.22-1.84.56-3.13,1-.69.26-1.42.45-2.27.85a3.8,3.8,0,0,0-1.24.91,3,3,0,0,0-.68,1.6,6.49,6.49,0,0,0,.68,3.22,16.72,16.72,0,0,0,1.63,2.9,15.87,15.87,0,0,0,2.19,2.53,9.9,9.9,0,0,0,2.58,1.87,3.72,3.72,0,0,0,3.11.17,4.92,4.92,0,0,0,1.94-1.75c.88-1.4,1.52-2.5,1.87-3.22.29.22.58.45.89.67a19.77,19.77,0,0,0,5.33,2.39,37.8,37.8,0,0,0-1.09,4.09C1113.59,574.93,1113.38,575.65,1113.26,576.59Zm1.68-25.35a7.73,7.73,0,0,1,2.31-4.59,7.31,7.31,0,0,1,4.69-2,6.72,6.72,0,0,1,4.5,1.49,6.87,6.87,0,0,1,2.34,3.65,6.54,6.54,0,0,1-.28,3.82,9.55,9.55,0,0,1-1.06,2.07l0,0a9.29,9.29,0,0,1-1.13,1.14,7,7,0,0,1-2.84,1.55,6.72,6.72,0,0,1-3.84-.07,7.24,7.24,0,0,1-1.93-.91,6.62,6.62,0,0,1-2.74-6.19Z"/><path class="cls-6" d="M1037.3,277.79a3.07,3.07,0,0,0,.11,1.32,2.48,2.48,0,0,0,.86,1.23,5.69,5.69,0,0,0,2.67,1,14,14,0,0,0,5.72-.33,8.73,8.73,0,0,0,2.55-1,3.22,3.22,0,0,0,1.54-2.21,4.12,4.12,0,0,0-.41-2.22,20.35,20.35,0,0,0-1.93-3.46,15.1,15.1,0,0,0,3.69-1.81,15.64,15.64,0,0,0,2-1.35l.29.44c.41.6.95,1.5,1.72,2.59a9.66,9.66,0,0,0,1.48,1.66,3.41,3.41,0,0,0,1.15.74,2.41,2.41,0,0,0,1.57.07,5.36,5.36,0,0,0,2.43-1.74,22.81,22.81,0,0,0,1.85-2.33,11.63,11.63,0,0,0,2.28-5.39,3.61,3.61,0,0,0-.71-2.71,3.67,3.67,0,0,0-2.13-1.1,27,27,0,0,0-4-.35,17,17,0,0,0,1.16-4.28,15.63,15.63,0,0,0,0-3.21,17.81,17.81,0,0,0,4,0,4.06,4.06,0,0,0,2.14-.74,3.19,3.19,0,0,0,1.17-2.42,8.39,8.39,0,0,0-.34-2.73,13.78,13.78,0,0,0-1-2.7,14,14,0,0,0-1.52-2.45,5.41,5.41,0,0,0-2.15-1.86,2.63,2.63,0,0,0-1.49-.16,3.23,3.23,0,0,0-1.21.56,18.39,18.39,0,0,0-1.58,1.36c-.91.82-1.63,1.5-2.12,2a19.52,19.52,0,0,0-1.72-1.68,16.11,16.11,0,0,0-4.71-2.75,33.06,33.06,0,0,0,1.72-2.9,4.21,4.21,0,0,0,.5-2.21,3.22,3.22,0,0,0-1.44-2.26,8.77,8.77,0,0,0-2.5-1.16,14.24,14.24,0,0,0-2.82-.58,14.58,14.58,0,0,0-2.88,0,5.67,5.67,0,0,0-2.72.85,2.57,2.57,0,0,0-.91,1.18,3.36,3.36,0,0,0-.17,1.33c.07.81.23,1.44.33,2.06.26,1.41.48,2.51.66,3.19a17.39,17.39,0,0,0-7,3.62c-.45-.5-1-1.13-1.78-1.88-.46-.43-.88-.92-1.51-1.44a3.19,3.19,0,0,0-1.17-.63,2.56,2.56,0,0,0-1.5.07,5.58,5.58,0,0,0-2.25,1.74,14.05,14.05,0,0,0-2.8,5,8.31,8.31,0,0,0-.49,2.7,3.23,3.23,0,0,0,1,2.49,4.19,4.19,0,0,0,2.1.85c1,.12,1.86.2,2.51.24-.11.44-.2.89-.3,1.35-.06.25-.12.51-.16.76l-.08.78a.37.37,0,0,1,0,.11c0,.16,0,.32,0,.48h0a15.85,15.85,0,0,0,.51,5.38c-.67.19-1.58.49-2.7.87-.6.23-1.23.4-2,.73a3.37,3.37,0,0,0-1.07.79,2.55,2.55,0,0,0-.59,1.38,5.43,5.43,0,0,0,.59,2.78,13.6,13.6,0,0,0,1.41,2.51,13.42,13.42,0,0,0,1.89,2.19,8.82,8.82,0,0,0,2.22,1.61,3.25,3.25,0,0,0,2.69.15,4.09,4.09,0,0,0,1.67-1.52,29.38,29.38,0,0,0,1.62-2.78l.77.59a17.35,17.35,0,0,0,4.61,2.06,29.75,29.75,0,0,0-.94,3.53C1037.58,276.35,1037.4,277,1037.3,277.79Zm1.45-21.9a6.63,6.63,0,0,1,2-4,6.21,6.21,0,0,1,4-1.72,5.72,5.72,0,0,1,3.88,1.28,5.87,5.87,0,0,1,2,3.15,5.64,5.64,0,0,1-.24,3.3,8.12,8.12,0,0,1-.92,1.79l0,0a6.9,6.9,0,0,1-1,1,6.21,6.21,0,0,1-2.45,1.34,5.8,5.8,0,0,1-3.32-.07,6,6,0,0,1-1.67-.78,5.71,5.71,0,0,1-2.36-5.35Z"/><path class="cls-4" d="M87.55,538a2.41,2.41,0,0,0,.08,1,1.85,1.85,0,0,0,.64.9,4.09,4.09,0,0,0,2,.71,10.58,10.58,0,0,0,2.12.1,11,11,0,0,0,2.1-.34,6.26,6.26,0,0,0,1.87-.77,2.36,2.36,0,0,0,1.14-1.63,3,3,0,0,0-.3-1.64,15.93,15.93,0,0,0-1.42-2.55,11.3,11.3,0,0,0,2.72-1.34,10.91,10.91,0,0,0,1.48-1l.21.33c.31.44.7,1.1,1.27,1.9a7.13,7.13,0,0,0,1.09,1.23,2.66,2.66,0,0,0,.85.55,1.84,1.84,0,0,0,1.16.05,4,4,0,0,0,1.79-1.29,17,17,0,0,0,1.37-1.72,8.57,8.57,0,0,0,1.68-4,2.65,2.65,0,0,0-.52-2,2.69,2.69,0,0,0-1.57-.81,18.55,18.55,0,0,0-2.94-.26,12.86,12.86,0,0,0,.85-3.16,11,11,0,0,0,0-2.37,12.93,12.93,0,0,0,3,0,3,3,0,0,0,1.57-.54,2.35,2.35,0,0,0,.86-1.79,6.52,6.52,0,0,0-.24-2,10.53,10.53,0,0,0-1.86-3.8,4,4,0,0,0-1.58-1.37,1.91,1.91,0,0,0-1.1-.12,2.34,2.34,0,0,0-.9.41c-.48.35-.82.7-1.17,1-.66.61-1.2,1.11-1.55,1.48a13.65,13.65,0,0,0-1.28-1.24,11.74,11.74,0,0,0-3.47-2,23.11,23.11,0,0,0,1.27-2.14,3.08,3.08,0,0,0,.37-1.63A2.38,2.38,0,0,0,98,504.43a6.43,6.43,0,0,0-1.84-.85,10.65,10.65,0,0,0-2.08-.43,10.83,10.83,0,0,0-2.13,0,4.12,4.12,0,0,0-2,.63,1.81,1.81,0,0,0-.67.87,2.5,2.5,0,0,0-.13,1c0,.6.17,1.06.24,1.52.19,1,.36,1.85.49,2.35a12.93,12.93,0,0,0-5.2,2.68c-.33-.37-.77-.84-1.32-1.39-.33-.32-.64-.68-1.11-1.07a2.47,2.47,0,0,0-.87-.46,1.88,1.88,0,0,0-1.1.05,4.24,4.24,0,0,0-1.66,1.28,9.73,9.73,0,0,0-1.22,1.75,10.31,10.31,0,0,0-.85,1.94,6.48,6.48,0,0,0-.36,2,2.39,2.39,0,0,0,.76,1.83,3.06,3.06,0,0,0,1.55.63c.75.09,1.37.14,1.85.18-.08.32-.15.66-.23,1s-.08.38-.11.56l-.06.58a.19.19,0,0,1,0,.08l0,.35h0a11.93,11.93,0,0,0,.38,4c-.49.14-1.17.36-2,.65-.43.16-.9.29-1.44.54a2.58,2.58,0,0,0-.79.58,1.83,1.83,0,0,0-.43,1,4.05,4.05,0,0,0,.43,2,10.62,10.62,0,0,0,1,1.85,10.39,10.39,0,0,0,1.39,1.61A6.25,6.25,0,0,0,80.17,535a2.33,2.33,0,0,0,2,.11,3,3,0,0,0,1.23-1.12,22.51,22.51,0,0,0,1.2-2.05c.18.15.37.29.56.43a12.83,12.83,0,0,0,3.4,1.52,25.05,25.05,0,0,0-.69,2.61C87.76,536.9,87.62,537.36,87.55,538Zm1.07-16.15a4.91,4.91,0,0,1,1.47-2.93,4.64,4.64,0,0,1,3-1.27,4.26,4.26,0,0,1,2.86.94,4.39,4.39,0,0,1,1.5,2.33,4.17,4.17,0,0,1-.18,2.44,5.56,5.56,0,0,1-.68,1.31v0a5.47,5.47,0,0,1-.72.73,4.62,4.62,0,0,1-1.81,1,4.36,4.36,0,0,1-2.45,0,4.6,4.6,0,0,1-1.23-.58,4.45,4.45,0,0,1-1-1A4.26,4.26,0,0,1,88.62,521.81Z"/><path class="cls-7" d="M816.11,589.76a3.34,3.34,0,0,0,.11,1.38,2.61,2.61,0,0,0,.9,1.27,5.91,5.91,0,0,0,2.77,1,15.65,15.65,0,0,0,3,.13,14.9,14.9,0,0,0,3-.48,9,9,0,0,0,2.64-1.08,3.33,3.33,0,0,0,1.6-2.29,4.14,4.14,0,0,0-.42-2.31,22.84,22.84,0,0,0-2-3.6,15.7,15.7,0,0,0,3.83-1.88,16.5,16.5,0,0,0,2.08-1.4c.08.13.19.28.3.46.43.62,1,1.55,1.78,2.68a10.08,10.08,0,0,0,1.54,1.73,3.6,3.6,0,0,0,1.2.77,2.59,2.59,0,0,0,1.63.08,5.53,5.53,0,0,0,2.52-1.82,21.34,21.34,0,0,0,1.93-2.42,12,12,0,0,0,2.37-5.6,3.34,3.34,0,0,0-3-4,28.32,28.32,0,0,0-4.14-.36,17.41,17.41,0,0,0,1.2-4.45,15.42,15.42,0,0,0,0-3.33,18.86,18.86,0,0,0,4.18,0,4.17,4.17,0,0,0,2.22-.76,3.32,3.32,0,0,0,1.21-2.52,8.82,8.82,0,0,0-.35-2.84,14.17,14.17,0,0,0-1-2.8,14.79,14.79,0,0,0-1.58-2.55,5.74,5.74,0,0,0-2.23-1.93,2.67,2.67,0,0,0-1.55-.16,3.26,3.26,0,0,0-1.26.58c-.68.5-1.15,1-1.64,1.41-.94.85-1.7,1.56-2.2,2.08a17.32,17.32,0,0,0-1.79-1.74,16.56,16.56,0,0,0-4.89-2.86c.4-.59,1-1.62,1.78-3a4.33,4.33,0,0,0,.53-2.3,3.38,3.38,0,0,0-1.51-2.35,9.09,9.09,0,0,0-2.59-1.19,14.65,14.65,0,0,0-2.93-.61,15,15,0,0,0-3,0,5.77,5.77,0,0,0-2.82.89,2.71,2.71,0,0,0-.95,1.22,3.63,3.63,0,0,0-.17,1.38c.07.84.23,1.5.34,2.14.27,1.47.5,2.61.69,3.32a18,18,0,0,0-7.33,3.76c-.46-.52-1.09-1.17-1.85-2-.48-.46-.91-1-1.56-1.51a3.49,3.49,0,0,0-1.23-.64,2.57,2.57,0,0,0-1.55.07,5.85,5.85,0,0,0-2.34,1.8,14.78,14.78,0,0,0-2.92,5.2,9,9,0,0,0-.5,2.81,3.34,3.34,0,0,0,1.06,2.58,4.26,4.26,0,0,0,2.18.89q1.59.18,2.61.24c-.11.46-.21.93-.32,1.4-.05.27-.12.53-.16.8l-.08.81a.37.37,0,0,1,0,.11,4.21,4.21,0,0,0,0,.5h0a16.81,16.81,0,0,0,.54,5.59c-.7.2-1.65.51-2.81.91-.62.23-1.27.41-2,.76a3.58,3.58,0,0,0-1.11.82,2.63,2.63,0,0,0-.61,1.43A5.72,5.72,0,0,0,800,579a14.72,14.72,0,0,0,1.47,2.61,14,14,0,0,0,2,2.27,9.3,9.3,0,0,0,2.31,1.68,3.37,3.37,0,0,0,2.79.15,4.21,4.21,0,0,0,1.74-1.57,33.36,33.36,0,0,0,1.68-2.89l.8.6a17.61,17.61,0,0,0,4.79,2.15,36,36,0,0,0-1,3.67C816.4,588.27,816.21,588.92,816.11,589.76ZM817.62,567a6.91,6.91,0,0,1,2.07-4.12,6.54,6.54,0,0,1,4.21-1.79,6.07,6.07,0,0,1,4,1.33,6.18,6.18,0,0,1,2.11,3.28,5.9,5.9,0,0,1-.26,3.43,8.11,8.11,0,0,1-.95,1.86l0,0a7.34,7.34,0,0,1-1,1,6.4,6.4,0,0,1-2.55,1.4,6.11,6.11,0,0,1-3.46-.07,6.19,6.19,0,0,1-1.73-.81,5.93,5.93,0,0,1-2.45-5.56Z"/><path class="cls-6" d="M74.1,365a2.83,2.83,0,0,0,1-.68,2.22,2.22,0,0,0,.56-1.21,5,5,0,0,0-.46-2.47A14,14,0,0,0,74,358.35a13.09,13.09,0,0,0-1.62-2,8.13,8.13,0,0,0-1.93-1.48,2.89,2.89,0,0,0-2.38-.19,3.59,3.59,0,0,0-1.51,1.3,18.06,18.06,0,0,0-1.78,3,13.85,13.85,0,0,0-3-2,14.31,14.31,0,0,0-1.92-.93l.2-.42c.28-.58.72-1.39,1.21-2.46a9,9,0,0,0,.61-1.88,3.2,3.2,0,0,0,0-1.21,2.15,2.15,0,0,0-.65-1.23,4.64,4.64,0,0,0-2.41-1.07,19.67,19.67,0,0,0-2.62-.38,10.23,10.23,0,0,0-5.13.67,3.2,3.2,0,0,0-1.75,1.75,3.25,3.25,0,0,0,.11,2.12,22.13,22.13,0,0,0,1.52,3.2,14.78,14.78,0,0,0-3.79,1,12.8,12.8,0,0,0-2.47,1.42,15.34,15.34,0,0,0-1.78-3.08,3.56,3.56,0,0,0-1.52-1.31,2.86,2.86,0,0,0-2.37.19,7.57,7.57,0,0,0-1.94,1.48,12.6,12.6,0,0,0-1.62,2,12.81,12.81,0,0,0-1.19,2.25,4.83,4.83,0,0,0-.45,2.48,2.2,2.2,0,0,0,.54,1.2,2.87,2.87,0,0,0,1,.68,15.83,15.83,0,0,0,1.74.6c1,.33,1.88.58,2.48.72A14.22,14.22,0,0,0,39,366.9a13.93,13.93,0,0,0,0,4.82c-.61,0-1.63-.05-3,0a3.72,3.72,0,0,0-1.91.6A2.89,2.89,0,0,0,33,374.43a7.87,7.87,0,0,0,.23,2.42,12.56,12.56,0,0,0,2.11,4.62,4.94,4.94,0,0,0,1.87,1.69,2.24,2.24,0,0,0,1.3.17,2.94,2.94,0,0,0,1.09-.46c.59-.41,1-.82,1.43-1.17,1-.83,1.71-1.5,2.14-1.94a15.41,15.41,0,0,0,5.92,3.77c-.18.56-.39,1.3-.64,2.2-.13.54-.31,1.08-.43,1.8a2.82,2.82,0,0,0,0,1.18,2.33,2.33,0,0,0,.72,1.11,5,5,0,0,0,2.33.94,12.49,12.49,0,0,0,2.55.21,11.68,11.68,0,0,0,2.53-.31,7.44,7.44,0,0,0,2.28-.83,2.88,2.88,0,0,0,1.44-1.9,3.64,3.64,0,0,0-.28-2c-.37-.83-.69-1.5-1-2l1.17-.37.65-.22.64-.3a.19.19,0,0,1,.08,0l.39-.19h0a14.2,14.2,0,0,0,3.89-2.8c.44.43,1.08,1,1.87,1.68.44.35.85.76,1.44,1.17a3,3,0,0,0,1.08.46,2.27,2.27,0,0,0,1.31-.17,4.94,4.94,0,0,0,1.87-1.69,13.19,13.19,0,0,0,1.28-2.2,12.6,12.6,0,0,0,.83-2.42,7.87,7.87,0,0,0,.23-2.42,2.86,2.86,0,0,0-1.09-2.12,3.66,3.66,0,0,0-1.9-.6c-1.26,0-2.24,0-2.85,0,0-.28.08-.56.1-.85a15.06,15.06,0,0,0-.48-4.44,29.63,29.63,0,0,0,3.12-.86C72.88,365.39,73.44,365.25,74.1,365Zm-17.37,8.67a5.83,5.83,0,0,1-3.92.25,5.55,5.55,0,0,1-3.13-2.32,5.14,5.14,0,0,1-.76-3.54,5.27,5.27,0,0,1,1.51-2.95,4.91,4.91,0,0,1,2.63-1.29,6.79,6.79,0,0,1,1.77-.1h0a5.85,5.85,0,0,1,1.18.3,5.36,5.36,0,0,1,2.13,1.27,5.26,5.26,0,0,1,1.43,2.57,5.44,5.44,0,0,1,.15,1.62,5.24,5.24,0,0,1-.44,1.66A5.15,5.15,0,0,1,56.73,373.64Z"/><path class="cls-6" d="M917,445.88s0,0,0,0,0,0,0,0h0s0-.06-.05-.15,0-.59-.07-1.16c0-.84,0-2.09-.11-3.68a37,37,0,0,0-3-13,24.93,24.93,0,0,0-5.22-7.43,18.88,18.88,0,0,0-9-4.87c-.44-.09-.9-.16-1.35-.24l-.68-.12-.69,0a17.34,17.34,0,0,0-2.79,0,10.71,10.71,0,0,0-5.14,2.11c-3.12,2.35-5.37,6-6.84,10a27.85,27.85,0,0,0-1.52,6.09,17.3,17.3,0,0,0-.13,3.06c0,1,0,2.05.11,3.07a76,76,0,0,0,1.8,11.66c.37,1.84.88,3.62,1.3,5.36s.94,3.41,1.46,5c1,3.23,2,6.19,3,8.9,1.94,5.4,3.73,9.7,5,12.67,1.07,2.51,1.73,4.07,1.84,4.52v0a.51.51,0,0,1,0,.1v0a24.14,24.14,0,0,1-2.5-4.36c-1.44-2.89-3.42-7.13-5.53-12.52-1-2.69-2.16-5.65-3.21-8.89-.55-1.61-1-3.3-1.56-5s-1-3.54-1.4-5.42a74.87,74.87,0,0,1-1.93-11.9c-.13-1-.1-2.11-.14-3.19a18.3,18.3,0,0,1,.13-3.29,29.55,29.55,0,0,1,1.6-6.5c1.59-4.21,4-8.16,7.51-10.82a12.37,12.37,0,0,1,6-2.41,21.76,21.76,0,0,1,6.09.5,20.26,20.26,0,0,1,9.67,5.44,25.46,25.46,0,0,1,5.35,8,34.65,34.65,0,0,1,2.51,13.52,25.05,25.05,0,0,1-.24,3.72c-.05.41-.09.73-.14.94A1.52,1.52,0,0,1,917,445.88Z"/><path class="cls-6" d="M953.06,468.43a27.06,27.06,0,0,1-4.31,5,22.4,22.4,0,0,1-2.56,2c-.89.6-1.8,1.08-2.7,1.62a55.43,55.43,0,0,1-11,4.53A89.5,89.5,0,0,1,922.1,484c-3.27.59-6.35,1-9.15,1.41-5.6.75-10.13,1.32-13.25,1.79s-4.84.76-4.88.62v0l.09-.06a33.32,33.32,0,0,1,4.65-1.24c3.1-.69,7.61-1.46,13.19-2.38,2.78-.46,5.83-1,9.06-1.62a95.09,95.09,0,0,0,10.2-2.56,55.33,55.33,0,0,0,10.59-4.48c.84-.52,1.74-1,2.56-1.56a21.7,21.7,0,0,0,2.35-1.85,26.41,26.41,0,0,0,4-4.65,22.86,22.86,0,0,0,4.12-11.21,14,14,0,0,0-.69-5.55,12.72,12.72,0,0,0-2.74-4.58,12.31,12.31,0,0,0-4.18-2.89,25.55,25.55,0,0,0-4.74-1.51,33.88,33.88,0,0,0-9-.74,20.11,20.11,0,0,0-3.86.6c-1.22.32-2.35.67-3.42,1-2.13.68-3.94,1.32-5.44,1.85-2.63.94-4.22,1.53-4.57,1.56h-.09s0,0,0-.06a.35.35,0,0,1,.11-.08,31.24,31.24,0,0,1,4.25-2.09c1.46-.63,3.25-1.37,5.37-2.15,1.06-.4,2.2-.8,3.44-1.17a21.13,21.13,0,0,1,4.07-.77,34,34,0,0,1,9.4.55,26.42,26.42,0,0,1,5.08,1.52,13.49,13.49,0,0,1,4.77,3.21,14.48,14.48,0,0,1,3.17,5.16,15.94,15.94,0,0,1,.83,6.23A24.34,24.34,0,0,1,953.06,468.43Z"/><path class="cls-6" d="M916.89,445.79c-.51.66-1.77,2.71-3.49,5.7-2.15,3.75-5,9-8.14,14.82s-5.79,11.15-7.67,15.06a52.09,52.09,0,0,0-2.77,6.31c-.11-.45-.77-2-1.84-4.52-1.24-3-3-7.27-5-12.67-1-2.71-2-5.67-3-8.9-.52-1.6-1-3.29-1.46-5s-.93-3.52-1.3-5.36a76,76,0,0,1-1.8-11.66c-.12-1-.07-2-.11-3.07a17.3,17.3,0,0,1,.13-3.06,27.85,27.85,0,0,1,1.52-6.09c1.47-4,3.72-7.65,6.84-10a10.71,10.71,0,0,1,5.14-2.11,17.34,17.34,0,0,1,2.79,0l.69,0,.68.12c.45.08.91.15,1.35.24a18.88,18.88,0,0,1,9,4.87,24.93,24.93,0,0,1,5.22,7.43,37,37,0,0,1,3,13c.14,1.59.09,2.84.11,3.68C916.84,445.2,916.86,445.59,916.89,445.79Z"/><path class="cls-6" d="M951.54,467.4a26.41,26.41,0,0,1-4,4.65,21.7,21.7,0,0,1-2.35,1.85c-.82.55-1.72,1-2.56,1.56A55.33,55.33,0,0,1,932,479.94a95.09,95.09,0,0,1-10.2,2.56c-3.23.65-6.28,1.16-9.06,1.62-5.58.92-10.09,1.69-13.19,2.38a33.32,33.32,0,0,0-4.65,1.24c.36-.42,1.59-2.65,3.42-6,2.07-3.79,4.9-9.05,8-14.88s5.86-11.11,7.82-15c1.53-3,2.57-5.12,2.89-6,.35,0,1.94-.62,4.57-1.56,1.5-.53,3.31-1.17,5.44-1.85,1.07-.34,2.2-.69,3.42-1a20.11,20.11,0,0,1,3.86-.6,33.88,33.88,0,0,1,9,.74,25.55,25.55,0,0,1,4.74,1.51,12.31,12.31,0,0,1,4.18,2.89,12.72,12.72,0,0,1,2.74,4.58,14,14,0,0,1,.69,5.55A22.86,22.86,0,0,1,951.54,467.4Z"/><path class="cls-8" d="M886.37,442c0-4,5-14.06,10.49-13.74,4.72.27,9.93,7,11.56,10.58s2.51,11.7,3.26,15.71c.8-1.45,1-1.84,1.72-3,1.72-3,3-5,3.49-5.7,0-.2,0-.59-.07-1.16,0-.84,0-2.09-.11-3.68a37,37,0,0,0-3-13,24.93,24.93,0,0,0-5.22-7.43,18.88,18.88,0,0,0-9-4.87c-.44-.09-.9-.16-1.35-.24l-.68-.12-.69,0a17.34,17.34,0,0,0-2.79,0,10.71,10.71,0,0,0-5.14,2.11c-3.12,2.35-5.37,6-6.84,10a27.85,27.85,0,0,0-1.52,6.09,17.3,17.3,0,0,0-.13,3.06c0,1,0,2.05.11,3.07a76,76,0,0,0,1.8,11.66c.37,1.84.88,3.62,1.3,5.36s.94,3.41,1.46,5c1,3.23,2,6.19,3,8.9,1.94,5.4,3.73,9.7,5,12.67.39.92.73,1.71,1,2.36C894.94,479.92,886.43,450.06,886.37,442Z"/><path class="cls-8" d="M955.66,456.19a14,14,0,0,0-.69-5.55,12.72,12.72,0,0,0-2.74-4.58,12.31,12.31,0,0,0-4.18-2.89,25.55,25.55,0,0,0-4.74-1.51,33.88,33.88,0,0,0-9-.74,20.11,20.11,0,0,0-3.86.6c-1.22.32-2.35.67-3.42,1-2.13.68-3.94,1.32-5.44,1.85-2.63.94-4.22,1.53-4.57,1.56-.32.84-1.36,3-2.89,6-.79,1.54-1.71,3.33-2.73,5.28,0,.15.05.29.06.44,3.15-2.19,6.16-4.64,9.66-6.25a22.88,22.88,0,0,1,11.15-2c4.42.26,9.79,1.7,12,6s-.21,9.17-3,12.57c-7.63,9.33-19.17,12.59-30.14,16.51l1.62-.27c2.78-.46,5.83-1,9.06-1.62a95.09,95.09,0,0,0,10.2-2.56,55.33,55.33,0,0,0,10.59-4.48c.84-.52,1.74-1,2.56-1.56a21.7,21.7,0,0,0,2.35-1.85,26.41,26.41,0,0,0,4-4.65A22.86,22.86,0,0,0,955.66,456.19Z"/><path class="cls-6" d="M914.14,451.9c-2,3.85-4.73,9.14-7.82,15s-5.91,11.09-8,14.88c-1.83,3.35-3.06,5.58-3.42,6,0,.06-.08.08-.1.08s0-.05,0-.12v0a52.09,52.09,0,0,1,2.77-6.31c1.88-3.91,4.59-9.24,7.67-15.06s6-11.07,8.14-14.82c1.72-3,3-5,3.49-5.7a1.5,1.5,0,0,1,.16-.2s.06,0,.08,0,0,.1,0,.25l-.06.14C916.71,446.78,915.67,448.9,914.14,451.9Z"/><ellipse class="cls-9" cx="463.15" cy="556.46" rx="290.11" ry="38.91"/><path class="cls-10" d="M751.31,359.15s.23,0,.58-.09a33.29,33.29,0,0,0,3.85-1.64c.82-.42,1.78-.9,2.83-1.46a132.42,132.42,0,0,0,17.94-12c14.45-11.16,32.27-29.05,50.16-50.18,8.91-10.57,17.31-20.73,24.4-30.47A183.45,183.45,0,0,0,867.84,236a108.72,108.72,0,0,0,4.87-11.39c1.21-3.52,1.4-7.18-.14-9.73a4.47,4.47,0,0,0-3.23-2,6.08,6.08,0,0,0-2.65.19l-.15.05c-1.27.43-1.71,1.14-1.59,1.2s.49-.22,1.41-.4a2.91,2.91,0,0,0,.49,0,6.26,6.26,0,0,1,2.26.16,3.24,3.24,0,0,1,2.12,1.67c1,2,.69,5-.63,8.19s-3.16,6.92-5.25,10.86a211.07,211.07,0,0,1-17.22,26.39c-7.17,9.49-15.63,19.56-24.51,30.09-17.79,21-35.1,39-48.87,50.56a190.45,190.45,0,0,1-17,12.84c-.86.58-1.66,1.08-2.34,1.53-1.77,1.16-3,2-3.64,2.45C751.45,358.89,751.28,359.06,751.31,359.15Z"/><path class="cls-10" d="M840.47,222c.1.07.33-.09.68-.43v0a64.17,64.17,0,0,0,4.81-6.32,52.78,52.78,0,0,1,5.76-7.08,11.35,11.35,0,0,1,4-2.7,9.12,9.12,0,0,1,5,.35,4.59,4.59,0,0,1,3.11,3.15,10.09,10.09,0,0,1-.06,4.79,30,30,0,0,1-3.39,8.29c-2.59,4.56-5,6.72-4.82,7s3.32-1.42,6.49-6a27.49,27.49,0,0,0,4.24-8.74,2.29,2.29,0,0,0,.09-.44,7.13,7.13,0,0,0,.18-.8,10.94,10.94,0,0,0-.08-4.92,7.28,7.28,0,0,0-4.81-5,13.38,13.38,0,0,0-3.32-.66,7.8,7.8,0,0,0-3.41.34,13.17,13.17,0,0,0-5,3.49,43,43,0,0,0-5.6,7.82c-1.46,2.55-2.52,4.61-3.16,6C840.58,221.23,840.36,221.9,840.47,222Z"/><path class="cls-10" d="M815,211.8A8,8,0,0,0,816.5,216a11.68,11.68,0,0,0,1.84,2.08c.13.12.25.24.38.34.79.67,1.46,1.15,2.09,1.74a11.51,11.51,0,0,1,2.77,3.55,2.89,2.89,0,0,1-.18,3,4.38,4.38,0,0,1-2.2,1.43s-.05,0-.07,0c-1.48.45-2.45.41-2.47.66s.9.58,2.75.4a5.35,5.35,0,0,0,3.18-1.46,3.69,3.69,0,0,0,.93-1.54v0a4.74,4.74,0,0,0-.08-3.15,12,12,0,0,0-3-4.52c-.64-.68-1.45-1.36-2.08-2a9.42,9.42,0,0,1-1.7-2,5.2,5.2,0,0,1-.57-4.83,7.12,7.12,0,0,1,3.9-3.85c3.69-1.36,8.17.2,10.88,2.44a20.73,20.73,0,0,1,5.62,8.26c2.11,5.54,1.12,9.37,1.58,9.44.17,0,.64-.85.94-2.59a14.93,14.93,0,0,0,.14-1.9v0c0-.44,0-.93,0-1.44a18.82,18.82,0,0,0-.73-4.1,21.23,21.23,0,0,0-5.81-9.61,15.65,15.65,0,0,0-6.07-3.28,12.12,12.12,0,0,0-7.54.18,9.71,9.71,0,0,0-5.47,5.49A7.45,7.45,0,0,0,815,211.8Z"/><path class="cls-10" d="M801.51,232.31c1.16,3.26,3.33,5.52,5.24,6.22l.4.15a4.5,4.5,0,0,0,.49.14c1.31.33,2.08.1,2.07,0s-1-.37-2.46-1.26a9.68,9.68,0,0,1-3.84-5.86,20.49,20.49,0,0,1,.07-10.69,12.19,12.19,0,0,1,2.88-5.29,6.41,6.41,0,0,1,5.49-1.84,8.67,8.67,0,0,1,2.94.87,1.9,1.9,0,0,1,1,1.79c0,1.81-1.07,4-1.51,6.32a7.29,7.29,0,0,0,.23,3.82,5.45,5.45,0,0,0,2.6,2.67,8,8,0,0,0,3,.94,5.12,5.12,0,0,0,3.1-.59,5.28,5.28,0,0,0,2.3-3.45v0a5.18,5.18,0,0,0,.11-1,6.46,6.46,0,0,0-.9-3.54c-1.09-1.78-2.42-1.9-2.42-1.76s.86.67,1.44,2.25a5.73,5.73,0,0,1,.31,2.92,3.81,3.81,0,0,1-1.81,2.87,2.52,2.52,0,0,1-1.12.24,5.5,5.5,0,0,1-2.92-.87,3.2,3.2,0,0,1-1.43-1.54,5.15,5.15,0,0,1,0-2.41c.23-1,.55-1.94.93-3.05.2-.7.47-1.41.62-2.21a8.28,8.28,0,0,0,.17-1.56,4,4,0,0,0-.1-1.17l-.13-.61c-.08-.19-.21-.38-.29-.58a4.8,4.8,0,0,0-1.74-1.83,12.85,12.85,0,0,0-1.22-.55,9.56,9.56,0,0,0-2.85-.72,9,9,0,0,0-7.78,2.69,14.24,14.24,0,0,0-3.41,6.56A21,21,0,0,0,801.51,232.31Z"/><path class="cls-11" d="M729,318.32a34.23,34.23,0,0,1,8.94,5.91c5.82,5.12,10.51,12.33,13.88,20.6a76.48,76.48,0,0,1,3.62,11.33c.68-.45,1.48-1,2.34-1.53a190.45,190.45,0,0,0,17-12.84c13.77-11.56,31.08-29.55,48.87-50.56,8.88-10.53,17.34-20.6,24.51-30.09a211.07,211.07,0,0,0,17.22-26.39c2.09-3.94,3.93-7.64,5.25-10.86s1.59-6.21.63-8.19a3.24,3.24,0,0,0-2.12-1.67,6.26,6.26,0,0,0-2.26-.16,2.91,2.91,0,0,1-.49,0,2.29,2.29,0,0,1-.09.44A27.49,27.49,0,0,1,862,223.1c-3.17,4.54-6.29,6.3-6.49,6s2.23-2.47,4.82-7a30,30,0,0,0,3.39-8.29,10.09,10.09,0,0,0,.06-4.79,4.59,4.59,0,0,0-3.11-3.15,9.12,9.12,0,0,0-5-.35,11.35,11.35,0,0,0-4,2.7,52.78,52.78,0,0,0-5.76,7.08,64.17,64.17,0,0,1-4.81,6.32v0a14.93,14.93,0,0,1-.14,1.9c-.3,1.74-.77,2.61-.94,2.59-.46-.07.53-3.9-1.58-9.44a20.73,20.73,0,0,0-5.62-8.26c-2.71-2.24-7.19-3.8-10.88-2.44a7.12,7.12,0,0,0-3.9,3.85,5.2,5.2,0,0,0,.57,4.83,9.42,9.42,0,0,0,1.7,2c.63.6,1.44,1.28,2.08,2a12,12,0,0,1,3,4.52,4.74,4.74,0,0,1,.08,3.15v0a5.28,5.28,0,0,1-2.3,3.45,5.12,5.12,0,0,1-3.1.59,8,8,0,0,1-3-.94,5.45,5.45,0,0,1-2.6-2.67,7.29,7.29,0,0,1-.23-3.82c.44-2.29,1.5-4.51,1.51-6.32a1.9,1.9,0,0,0-1-1.79,8.67,8.67,0,0,0-2.94-.87,6.41,6.41,0,0,0-5.49,1.84,12.19,12.19,0,0,0-2.88,5.29,20.49,20.49,0,0,0-.07,10.69,9.68,9.68,0,0,0,3.84,5.86c1.42.89,2.48,1,2.46,1.26s-.76.34-2.07,0c-.44,1.74-3.12,7.57-8,15.07-2.82,4.43-6.56,9.45-10.88,14.9s-9.43,11.1-15.07,16.8A225.13,225.13,0,0,1,757,300.74a158.49,158.49,0,0,1-15,10.76A84.07,84.07,0,0,1,729,318.32Z"/><path class="cls-12" d="M752.75,327.89c2.07,3.9,4.1,9.48,8.33,11.59,3.95,2,7.64-.91,10.56-3.4,5.39-4.61,10.89-9,16.35-13.52A255,255,0,0,0,822.52,287c10.37-12.7,22.47-25,34.58-43.3,1.84-2.78,11.78-14.2,7.89-16.08-4.72-2.28-10.84,5-11.73,5.27.52-2.91,5.41-11.08,3.66-13.23-5.83-7.17-16.34,9.49-18.86,12.74,1.54-8.06-2.42-17-8.48-21.66-5.16-4-10.72-1.63-11.1,3.48a5.1,5.1,0,0,1-.39-4.47,7.12,7.12,0,0,1,3.9-3.85c3.69-1.36,8.17.2,10.88,2.44a20.73,20.73,0,0,1,5.62,8.26c2.11,5.54,1.12,9.37,1.58,9.44.17,0,.64-.85.94-2.59a14.93,14.93,0,0,0,.14-1.9v0a64.17,64.17,0,0,0,4.81-6.32,52.78,52.78,0,0,1,5.76-7.08,11.35,11.35,0,0,1,4-2.7,9.12,9.12,0,0,1,5,.35,4.59,4.59,0,0,1,3.11,3.15,10.09,10.09,0,0,1-.06,4.79,30,30,0,0,1-3.39,8.29c-2.59,4.56-5,6.72-4.82,7s3.32-1.42,6.49-6a27.49,27.49,0,0,0,4.24-8.74,2.29,2.29,0,0,0,.09-.44,2.91,2.91,0,0,0,.49,0,6.26,6.26,0,0,1,2.26.16,3.24,3.24,0,0,1,2.12,1.67c1,2,.69,5-.63,8.19s-3.16,6.92-5.25,10.86a211.07,211.07,0,0,1-17.22,26.39c-7.17,9.49-15.63,19.56-24.51,30.09-17.79,21-35.1,39-48.87,50.56a190.45,190.45,0,0,1-17,12.84c-.86.58-1.66,1.08-2.34,1.53a76.48,76.48,0,0,0-3.62-11.33c-3.37-8.27-8.06-15.48-13.88-20.6a34.23,34.23,0,0,0-8.94-5.91,73.61,73.61,0,0,0,8.9-4.39C744.24,316.18,749.66,322.08,752.75,327.89Z"/><path class="cls-10" d="M726.64,318.84s0,0,0,.06,0,0,0,0a5.8,5.8,0,0,0,2.3-.61,84.07,84.07,0,0,0,13-6.82,158.49,158.49,0,0,0,15-10.76,225.13,225.13,0,0,0,16.75-15.15c5.64-5.7,10.69-11.42,15.07-16.8s8.06-10.47,10.88-14.9c4.87-7.5,7.55-13.33,8-15.07.08-.29.08-.48,0-.51s-.26.08-.5.37c-1.29,1.39-4.63,6.69-9.81,13.58-3.09,4.17-7,8.95-11.39,14.18s-9.54,10.73-15.09,16.36-11.09,10.66-16.25,15.13-10,8.26-14.23,11.23c-3.27,2.38-6.12,4.28-8.37,5.78-1.88,1.25-3.33,2.21-4.25,2.86C727.05,318.32,726.66,318.65,726.64,318.84Z"/><path class="cls-13" d="M759.35,312.55A68.38,68.38,0,0,0,748.12,285,62.32,62.32,0,0,0,744,279.7c-1.55-1.53-3-3.12-4.55-4.4a47.87,47.87,0,0,0-9.4-6.37,49.26,49.26,0,0,0-15.85-4.77c-3.94-.5-6.2-.61-6.22-1s2.24-.78,6.34-.84a30.77,30.77,0,0,1,3.25.1,95.09,95.09,0,0,0-3.87-18.72A90.68,90.68,0,0,0,704.55,224a64.45,64.45,0,0,0-7.65-10.15,59.69,59.69,0,0,0-10.36-8.74,70.39,70.39,0,0,0-24.19-10.26,75.55,75.55,0,0,0-21.57-1.57,67.09,67.09,0,0,0-17.09,3.52,48.77,48.77,0,0,1,5.43,18.8c.08,1.41.12,2.64.18,3.73s-.06,2-.12,2.72c-.11,1.47-.23,2.22-.4,2.22s-.33-.75-.54-2.19c-.09-.72-.19-1.6-.32-2.64s-.37-2.24-.6-3.58a52.4,52.4,0,0,0-8.49-20.9,51.77,51.77,0,0,0-10.74-11.16,67.73,67.73,0,0,0-15.56-8.8A106.34,106.34,0,0,0,552,167.7,80.84,80.84,0,0,0,531,170.53a79.1,79.1,0,0,0-18.23,7.65,69.65,69.65,0,0,0-14.18,10.88c-.94,1-1.89,2-2.81,3s-1.65,2.11-2.47,3.14a52.81,52.81,0,0,0-4.12,6.24c-1.16,2.07-2.08,4.17-3,6.12-.67,2-1.44,3.95-1.95,5.78s-.81,3.6-1.19,5.19c-.17,1.42-.31,2.72-.46,3.92a135.56,135.56,0,0,1,3.64,14.21,132.36,132.36,0,0,1,2.35,35.58,80,80,0,0,1-5.19,23.48,38.06,38.06,0,0,1-2.79,5.92c-.73,1.3-1.17,1.95-1.32,1.87s0-.86.46-2.26,1.28-3.4,1.91-6.12a94.12,94.12,0,0,0,3.62-23.1A141.7,141.7,0,0,0,482,237.56a150.46,150.46,0,0,0-5.76-19.64,98.93,98.93,0,0,0-9.42-19.58,71.21,71.21,0,0,0-14.66-15.77,95.21,95.21,0,0,0-17.06-10.91,93.46,93.46,0,0,0-32.92-9.61,58.67,58.67,0,0,0-23,2.16c-2.09.67-3.77,1.34-5,1.86a48.13,48.13,0,0,1,7.74,6.51c1,1.09,1.87,2,2.56,2.87l1.61,2.31c.86,1.23,1.24,1.94,1.09,2.05s-.75-.42-1.82-1.47c-.52-.52-1.15-1.17-1.93-1.94s-1.74-1.55-2.76-2.5a47.62,47.62,0,0,0-20.52-10.64c-9.51-2.26-21.72-1.5-33.55,3.9a62,62,0,0,0-16.82,11.2,60.18,60.18,0,0,0-12.83,17.34,51.64,51.64,0,0,0-5,20.86,54.9,54.9,0,0,0,3.33,19.77,61.41,61.41,0,0,0,9.13,15.89,68.64,68.64,0,0,0,11.31,11.5,56,56,0,0,0,20.73,10.57c1.36.32,2.58.59,3.63.82s2,.27,2.7.4c1.46.25,2.24.44,2.24.61s-.78.27-2.31.35c-.75,0-1.69.09-2.8,0s-2.39-.25-3.83-.42c-5.72-.79-13.91-3.6-22.37-9.71a68,68,0,0,1-12.33-11.69,64.25,64.25,0,0,1-10.14-16.79,57.84,57.84,0,0,1-3.89-21.42,55.18,55.18,0,0,1,.62-7.31,70.41,70.41,0,0,0-16.1,3.22,60.37,60.37,0,0,0-18.66,10.49,76.07,76.07,0,0,0-8.92,9,80.42,80.42,0,0,0-7.58,11.33,75.53,75.53,0,0,0-8.33,24.92,63.37,63.37,0,0,0-.65,11.47c.12,1.8.18,3.54.46,5.2a46.45,46.45,0,0,0,.83,4.73A44.21,44.21,0,0,0,234.44,303c.84,1.53,1.67,2.58,2.16,3.4,0,0,0,0,0,0a26.79,26.79,0,0,1,8.35-.9,27.54,27.54,0,0,1,14.72,5,19.81,19.81,0,0,1,6.35,7.46,12.05,12.05,0,0,1,.86,2.38c.12.57.16.86.08.88s-.25-.21-.54-.71a19.8,19.8,0,0,0-1.24-2.09,20.91,20.91,0,0,0-6.53-6.39,26.18,26.18,0,0,0-13.76-3.85c-5.59-.11-11.92,2-17.57,6.34-11.39,8.63-19.83,25-22.76,43.85A98.43,98.43,0,0,0,215,418.64c.67,1.2,1.34,2.41,2,3.6s1.53,2.22,2.29,3.33a46.77,46.77,0,0,0,5,6.2l1.32,1.49,1.47,1.3c1,.88,2,1.76,2.93,2.61,2,1.68,4.21,3.06,6.28,4.61A77.87,77.87,0,0,0,264,452.25a90.17,90.17,0,0,0,27.07.71,84.23,84.23,0,0,0,22.79-6.32A49.32,49.32,0,0,0,330,435.92,43.81,43.81,0,0,0,338.52,424c3.43-7.33,3.35-12.08,3.83-12.08.14,0,.27,1.17.12,3.39a31.78,31.78,0,0,1-2.3,9.45,42.59,42.59,0,0,1-8.33,13,50.85,50.85,0,0,1-16.59,11.94,85.17,85.17,0,0,1-23.62,7.16,92.66,92.66,0,0,1-28.36-.3c-2.3-.39-4.6-.87-6.93-1.46-.35.92-.86,2.2-1.36,3.85a33.41,33.41,0,0,0-1,15.14,37,37,0,0,0,10.2,19.67,45.58,45.58,0,0,0,10.52,8.08,50,50,0,0,0,40.6,3.48c3.83-1.34,7.46-2.71,10.78-4.15,0-.17,0-.25.07-.25s.12,0,.21.12a64.66,64.66,0,0,0,10.07-5.23,41.44,41.44,0,0,0,11.22-10.51c.67-1,1.26-1.81,1.72-2.5a10.46,10.46,0,0,1-3.87-3.81c-1-1.82-1-3.16-.57-3.31s1.24.69,2.49,1.76a16.61,16.61,0,0,0,5.45,3.12,16.33,16.33,0,0,0,6.24.8c1.65-.08,2.81-.34,3.06.12s-.55,1.47-2.45,2.31a11.56,11.56,0,0,1-8,.12,7.76,7.76,0,0,1-1.26-.52c-.31.82-.75,1.76-1.3,2.87a36.6,36.6,0,0,1-10.86,12.27,61.79,61.79,0,0,1-10.08,6c.61,1.09,1.36,2.37,2.35,3.83a51,51,0,0,0,17.11,15.33A73.94,73.94,0,0,0,362.33,530a80.59,80.59,0,0,0,18,3.35,118,118,0,0,0,41.76-5.26,123.73,123.73,0,0,0,20.29-8.19A131.31,131.31,0,0,0,459.68,509a82.37,82.37,0,0,0,13.59-12.31A62.53,62.53,0,0,0,482,483.48a86.27,86.27,0,0,0,6.76-22.33c.56-2.72.77-4.9,1.07-6.34s.5-2.22.65-2.22.27.79.29,2.28a51.68,51.68,0,0,1-.21,6.51A74,74,0,0,1,485,484.86c-.1.25-.23.5-.35.75a53.63,53.63,0,0,0,3.41,9c3.06,6.13,9.34,14.21,19.68,21a91.31,91.31,0,0,0,17.89,9.21,130.53,130.53,0,0,0,75,6.47c18.36-3.77,35.18-11.72,46.38-23.32a49.86,49.86,0,0,0,7.18-9.11,40.11,40.11,0,0,0,4.15-10.08,66,66,0,0,0,2.09-19.81,82.27,82.27,0,0,0-2.24-16.5c-.48-2.41-1.23-4.59-1.78-6.62s-1.32-3.83-1.86-5.48c-1-2.49-1.84-4.59-2.53-6.16a19,19,0,0,1-4.67.13,14.7,14.7,0,0,1-4.61-1.24c-2.47-1.17-3.52-2.53-3.27-2.89s1.76.08,4,.52a22.24,22.24,0,0,0,7.1.13c-.12-.38-.16-.59-.1-.63s.27.15.58.57a10.46,10.46,0,0,0,1.3-.23,22.58,22.58,0,0,0,8.09-3.69c1.88-1.36,3-2.47,3.43-2.2s0,1.91-1.72,4a15.49,15.49,0,0,1-3.62,3.1,18.13,18.13,0,0,1-5.34,2.18c.86,1.47,1.84,3.37,3,5.68.72,1.63,1.51,3.43,2.31,5.46s1.59,4.25,2.2,6.7a80.29,80.29,0,0,1,3,17c0,.87.11,1.78.13,2.7a34.57,34.57,0,0,0,4.54,3.66,23.72,23.72,0,0,0,7.19,3.12,27,27,0,0,0,10.32.27A67.83,67.83,0,0,0,734.09,444a64.39,64.39,0,0,0,6.06-16.31,69,69,0,0,0-.09-30.81,54.78,54.78,0,0,0-4.25-12.08,26.36,26.36,0,0,0-6.26-8.17,19.94,19.94,0,0,0-6.81-3.75c-4.16-1.23-6.72-.56-6.78-1,0-.17.56-.5,1.76-.77a13.77,13.77,0,0,1,5.44,0,19.23,19.23,0,0,1,8,3.44,21.89,21.89,0,0,1,2.12,1.72c1-.21,2.57-.51,4.5-1.09a24.28,24.28,0,0,0,12.65-9.66c4-5.61,6.89-13.63,8.48-22.8A95.74,95.74,0,0,0,759.35,312.55Zm-122.7-64a11.64,11.64,0,0,1-3.79,6.28c-1.5,1.17-2.72,1.38-3,1-.44-.71,1.55-2.76,2.74-6.11-.21-.5-.48-1.11-.81-1.8a24.76,24.76,0,0,0-6.49-7.94,48.26,48.26,0,0,0-13.49-7.43,134,134,0,0,0-18.53-5.13,145.87,145.87,0,0,0-34.87-2.64c-9,.36-14.55,1.26-14.66.71s5.4-2.18,14.47-3.2A117.81,117.81,0,0,1,594,224a113.51,113.51,0,0,1,19,5.57,45.24,45.24,0,0,1,14,8.59,22,22,0,0,1,6.09,9.28c0,.14.09.29.13.44,0,0,0-.07,0-.09,1.13-4.46-.23-8.21.63-8.71.4-.23,1.38.48,2.2,2.22A11.56,11.56,0,0,1,636.65,248.54Z"/><path class="cls-11" d="M621.82,520.58c-1,.46-2.07.89-3.14,1.29.77-.94,1.48-1.86,2.15-2.66A15.11,15.11,0,0,1,621.82,520.58Z"/><path class="cls-11" d="M624.51,529.61a20.65,20.65,0,0,1-1,6.7,21.87,21.87,0,0,1-4,7c-3.69,4.51-9.43,8.3-16.27,11.32-.76.35-1.52.7-2.31,1-.52.24-1,.44-1.57.66l-1.53.59c-1.23.46-2.52.9-3.81,1.32-.52.18-1.05.34-1.59.49s-1,.29-1.47.43c-.79.23-1.58.43-2.39.63a3.53,3.53,0,0,1-.58.16c-.29.09-.61.16-.91.23a2.2,2.2,0,0,1-.37.07c-.82.21-1.65.41-2.5.58q-2.55.56-5.22,1c-1.5.26-3,.48-4.6.69-1.13.15-2.29.28-3.45.39-.79.1-1.6.16-2.41.25l-1.22.09c-.85.08-1.72.14-2.59.19s-1.73.1-2.58.14c-1.16.05-2.34.1-3.52.13-2.25.06-4.53.07-6.85.05-20,0-41.86-2.69-65.09-4a231.08,231.08,0,0,0-34.06.34,129.3,129.3,0,0,0-16.12,2.56,29.49,29.49,0,0,0-7.76,2.83,40.62,40.62,0,0,0-6.53,4.59c-1.63,1.35-3.19,2.68-4.74,3.87-.3.25-.64.49-1,.72a27,27,0,0,1-2.46,1.58c-.28.17-.56.32-.84.47s-.76.41-1.15.58-1,.48-1.52.7c-4.17,1.56-8.87,2.94-12.13,1.41a5.7,5.7,0,0,1-1.51-1c-.14-.14-.27-.26-.41-.42a4.63,4.63,0,0,1-.4-.48c-.13-.16-.25-.34-.36-.5-.23-.37-.42-.73-.62-1.12-.1-.22-.21-.46-.3-.7a10.58,10.58,0,0,1-.39-1.12,9.82,9.82,0,0,1-.3-1.16c0-.16-.07-.35-.11-.53v0c0-.06,0-.1,0-.17-.07-.38-.1-.77-.15-1.14s-.06-.88-.09-1.31a28,28,0,0,1,.27-5.27c.15-.45.31-.91.5-1.36a78.5,78.5,0,0,1,3.74-8.7,104.71,104.71,0,0,1,6.14-10.72c2.43-3.63,5.27-7.59,8.84-10.53a10,10,0,0,1,1.36-.93,3.39,3.39,0,0,1,.66-.33,5.67,5.67,0,0,1,.79-.28c1.17-.42,2.38-.78,3.61-1.12a61.93,61.93,0,0,1,7.67-1.44,113.07,113.07,0,0,1,16.68-.36c23.19.65,44.23,1.57,59.5,1.64,5.82,0,16.39-.66,24.35-1.21,3.92-.28,7.18-.55,9-.65l.71-.06a26.7,26.7,0,0,0,2.52.9c3.73,1.23,9.6,2.75,11.9,2.79l.15,0,0,0a127.55,127.55,0,0,0,44.67.47c.77-.12,1.54-.24,2.33-.41h0c1.92-.35,3.84-.77,5.78-1.23a106,106,0,0,0,18.9-6.25A16.88,16.88,0,0,1,624.51,529.61Z"/><path class="cls-12" d="M621.82,520.58c-1,.46-2.07.89-3.14,1.29-1.42.57-2.9,1.1-4.37,1.61,2.84-1.35,5.24-2.76,6.52-4.27A15.11,15.11,0,0,1,621.82,520.58Z"/><path class="cls-14" d="M551.89,532.05c-2.3,0-8.17-1.56-11.9-2.79,1.78.55,4,1.09,5.85,1.47a4.94,4.94,0,0,1,.64.15l1.86.42C549.5,531.58,550.69,531.81,551.89,532.05Z"/><path class="cls-12" d="M624.51,529.61a20.65,20.65,0,0,1-1,6.7,21.87,21.87,0,0,1-4,7c-3.69,4.51-9.43,8.3-16.27,11.32-.76.35-1.52.7-2.31,1-.52.24-1,.44-1.57.66l-1.53.59c-1.23.46-2.52.9-3.81,1.32-.52.18-1.05.34-1.59.49s-1,.29-1.47.43c-.79.23-1.58.43-2.39.63a3.53,3.53,0,0,1-.58.16c-.29.09-.61.16-.91.23a2.2,2.2,0,0,1-.37.07c-.82.21-1.65.41-2.5.58q-2.55.56-5.22,1c-1.5.26-3,.48-4.6.69-1.13.15-2.29.28-3.45.39-.79.1-1.6.16-2.41.25l-1.22.09c-.85.08-1.72.14-2.59.19s-1.73.1-2.58.14c-1.16.05-2.34.1-3.52.13-2.25.06-4.53.07-6.85.05-20,0-41.86-2.69-65.09-4a231.08,231.08,0,0,0-34.06.34,129.3,129.3,0,0,0-16.12,2.56,29.49,29.49,0,0,0-7.76,2.83,40.62,40.62,0,0,0-6.53,4.59c-1.63,1.35-3.19,2.68-4.74,3.87-.3.25-.64.49-1,.72a27,27,0,0,1-2.46,1.58c-.28.17-.56.32-.84.47s-.76.41-1.15.58-1,.48-1.52.7c-4.17,1.56-8.87,2.94-12.13,1.41a5.7,5.7,0,0,1-1.51-1c-.14-.14-.27-.26-.41-.42a4.63,4.63,0,0,1-.4-.48c-.13-.16-.25-.34-.36-.5-.23-.37-.42-.73-.62-1.12-.1-.22-.21-.46-.3-.7a10.58,10.58,0,0,1-.39-1.12,9.82,9.82,0,0,1-.3-1.16c0-.16-.07-.35-.11-.53v0c0-.06,0-.1,0-.17-.07-.38-.1-.77-.15-1.14s-.06-.88-.09-1.31a28,28,0,0,1,.27-5.27c.15-.45.31-.91.5-1.36a9.85,9.85,0,0,0,2.57,2c11,6.2,25.64-4.45,34.24-10.34,8.11-5.57,15.86-8.74,25.8-8.86a342.93,342.93,0,0,1,38.19,1.47c11.11,1.1,21.81,3.65,32.77,5.51,11.19,1.91,33.34,2.48,32.92-4.64,0-.55.22-1-.33-1-13.46,0-30.47-5.42-36.77-17.32l0-.06c.23,0,2-.2,4.14-.43,3.12-.35,7.2-.78,8.82-1l.71-.06a26.7,26.7,0,0,0,2.52.9c3.73,1.23,9.6,2.75,11.9,2.79l.15,0,0,0a127.55,127.55,0,0,0,44.67.47c.77-.12,1.54-.24,2.33-.41h0c1.92-.35,3.84-.77,5.78-1.23a106,106,0,0,0,18.9-6.25A16.88,16.88,0,0,1,624.51,529.61Z"/><path class="cls-10" d="M626,529.53a21.81,21.81,0,0,1-.81,7.35,23.75,23.75,0,0,1-4.07,7.77c-3.86,5-9.83,9.17-16.81,12.46a83.25,83.25,0,0,1-13.81,5.27,7.5,7.5,0,0,1-1.15.31c-11.19,3.11-24.06,4.62-37.66,4.62-20.24.18-42.26-2.44-65.31-3.69a233.1,233.1,0,0,0-33.49.25,129.61,129.61,0,0,0-15.66,2.38,26.11,26.11,0,0,0-6.89,2.45,36.21,36.21,0,0,0-6,4.12c-.53.45-1.09.89-1.63,1.35-1.39,1.15-2.81,2.31-4.31,3.37-.05,0-.12.06-.2.11a31.59,31.59,0,0,1-6.53,3.5,37.94,37.94,0,0,1-7.13,2,12.9,12.9,0,0,1-7.61-.83,10.37,10.37,0,0,1-5-5.71,8.9,8.9,0,0,1-.37-1.1,17.66,17.66,0,0,1-.76-3.48,15.79,15.79,0,0,1-.12-2.17,33,33,0,0,1,2.09-12.32c.59-1.88,1.48-3.58,2.21-5.3s1.6-3.3,2.58-4.78,1.8-3,2.8-4.27l1.44-2c.31-.4.65-.79,1-1.17a52.89,52.89,0,0,1,7-7.41c9.23-7.77,25.25-7,36.53-6.62,23.29.68,42,.74,57.19,1.5,7.06.38,12.86.66,17,.9,3.84.23,16-.28,16.89,0a.31.31,0,0,1,.27.31s-4.85.59-10.31.88c-.53,0-1.39.16-3.63.32-4.2.27-11.25.47-20.36.41-15.27-.07-36.31-1-59.5-1.64a113.07,113.07,0,0,0-16.68.36,61.93,61.93,0,0,0-7.67,1.44c-1.23.34-2.44.7-3.61,1.12a5.67,5.67,0,0,0-.79.28,3.39,3.39,0,0,0-.66.33,10,10,0,0,0-1.36.93c-3.57,2.94-6.41,6.9-8.84,10.53a104.71,104.71,0,0,0-6.14,10.72,78.5,78.5,0,0,0-3.74,8.7c-.19.45-.35.91-.5,1.36a28,28,0,0,0-.27,5.27c0,.43,0,.86.09,1.31s.08.76.15,1.14c0,.07,0,.11,0,.21s.07.37.11.53a9.82,9.82,0,0,0,.3,1.16,10.58,10.58,0,0,0,.39,1.12c.09.24.2.48.3.7.2.39.39.75.62,1.12.11.16.23.34.36.5a4.63,4.63,0,0,0,.4.48c.14.16.27.28.41.42a5.7,5.7,0,0,0,1.51,1c3.26,1.53,8,.15,12.13-1.41.52-.22,1-.46,1.52-.7s.77-.37,1.15-.58.56-.3.84-.47a27,27,0,0,0,2.46-1.58c.32-.23.66-.47,1-.72,1.55-1.19,3.11-2.52,4.74-3.87a40.62,40.62,0,0,1,6.53-4.59,29.49,29.49,0,0,1,7.76-2.83,129.3,129.3,0,0,1,16.12-2.56,231.08,231.08,0,0,1,34.06-.34c23.23,1.28,45.13,4,65.09,4,2.32,0,4.6,0,6.85-.05,1.18,0,2.36-.08,3.52-.13.85,0,1.72-.08,2.58-.14s1.74-.11,2.59-.19l1.22-.09c.81-.09,1.62-.15,2.41-.25,1.16-.11,2.32-.24,3.45-.39,1.56-.21,3.1-.43,4.6-.69q2.67-.43,5.22-1c.85-.17,1.68-.37,2.5-.58a2.2,2.2,0,0,0,.37-.07c.3-.07.62-.14.91-.23a3.53,3.53,0,0,0,.58-.16c.81-.2,1.6-.4,2.39-.63.5-.14,1-.27,1.47-.43s1.07-.31,1.59-.49c1.29-.42,2.58-.86,3.81-1.32l1.53-.59c.52-.22,1.05-.42,1.57-.66.79-.32,1.55-.67,2.31-1,6.84-3,12.58-6.81,16.27-11.32a21.87,21.87,0,0,0,4-7,20.65,20.65,0,0,0,1-6.7,16.88,16.88,0,0,0-.75-4.94,7.29,7.29,0,0,0,1.08-.48A16.89,16.89,0,0,1,626,529.53Z"/><path class="cls-15" d="M291.08,453a84.23,84.23,0,0,0,22.79-6.32A49.32,49.32,0,0,0,330,435.92a46,46,0,0,0,5.18-6.16c-27.82,6.08-42.61-26-33.56-46.46-22.1-11.13-17.65-41.93-16.13-49.25,10.2-49.23,71.79-53.51,71.79-53.51-1.83-30,16.52-40.84,41.39-52.86,16.86-8.16,38.56-6.61,56-2.29,12.14,3,27,7,29.25,22.61-.49-3.39-1.1-6.87-1.87-10.44a150.46,150.46,0,0,0-5.76-19.64,98.93,98.93,0,0,0-9.42-19.58,71.21,71.21,0,0,0-14.66-15.77,95.21,95.21,0,0,0-17.06-10.91,93.46,93.46,0,0,0-32.92-9.61,58.67,58.67,0,0,0-23,2.16c-2.09.67-3.77,1.34-5,1.86a48.13,48.13,0,0,1,7.74,6.51c1,1.09,1.87,2,2.56,2.87l1.61,2.31c.86,1.23,1.24,1.94,1.09,2.05s-.75-.42-1.82-1.47c-.52-.52-1.15-1.17-1.93-1.94s-1.74-1.55-2.76-2.5a47.62,47.62,0,0,0-20.52-10.64c-9.51-2.26-21.72-1.5-33.55,3.9a62,62,0,0,0-16.82,11.2,60.18,60.18,0,0,0-12.83,17.34,51.64,51.64,0,0,0-5,20.86,54.9,54.9,0,0,0,3.33,19.77,61.41,61.41,0,0,0,9.13,15.89,68.64,68.64,0,0,0,11.31,11.5,56,56,0,0,0,20.73,10.57c1.36.32,2.58.59,3.63.82s2,.27,2.7.4c1.46.25,2.24.44,2.24.61s-.78.27-2.31.35c-.75,0-1.69.09-2.8,0s-2.39-.25-3.83-.42c-5.72-.79-13.91-3.6-22.37-9.71a68,68,0,0,1-12.33-11.69,64.25,64.25,0,0,1-10.14-16.79,57.84,57.84,0,0,1-3.89-21.42,55.18,55.18,0,0,1,.62-7.31,70.41,70.41,0,0,0-16.1,3.22,60.37,60.37,0,0,0-18.66,10.49,76.07,76.07,0,0,0-8.92,9,80.42,80.42,0,0,0-7.58,11.33,75.53,75.53,0,0,0-8.33,24.92,63.37,63.37,0,0,0-.65,11.47c.12,1.8.18,3.54.46,5.2a46.45,46.45,0,0,0,.83,4.73A44.21,44.21,0,0,0,234.44,303c.84,1.53,1.67,2.58,2.18,3.44a26.79,26.79,0,0,1,8.35-.9,27.54,27.54,0,0,1,14.72,5,19.81,19.81,0,0,1,6.35,7.46,12.05,12.05,0,0,1,.86,2.38c.12.57.16.86.08.88s-.25-.21-.54-.71a19.8,19.8,0,0,0-1.24-2.09,20.91,20.91,0,0,0-6.53-6.39,26.18,26.18,0,0,0-13.76-3.85c-5.59-.11-11.92,2-17.57,6.34-11.39,8.63-19.83,25-22.76,43.85A98.43,98.43,0,0,0,215,418.64c.67,1.2,1.34,2.41,2,3.6s1.53,2.22,2.29,3.33a46.77,46.77,0,0,0,5,6.2l1.32,1.49,1.47,1.3c1,.88,2,1.76,2.93,2.61,2,1.68,4.21,3.06,6.28,4.61A77.87,77.87,0,0,0,264,452.25,90.17,90.17,0,0,0,291.08,453Z"/><path class="cls-15" d="M658.2,452.44c-.12-.63-.29-1.2-.45-1.8a47,47,0,0,1-10.61,14.1c-24.22,22.14-63.3,26.28-94.49,22.42-21.95-2.72-49.21-5.91-63-24.14,0,1.05-.08,2.25-.22,3.59-.26,3.49.36,2.78-1,8A24.6,24.6,0,0,1,484.81,486a51.43,51.43,0,0,0,3.29,8.59c3.06,6.13,9.34,14.21,19.68,21a91.31,91.31,0,0,0,17.89,9.21,130.53,130.53,0,0,0,75,6.47c18.36-3.77,35.18-11.72,46.38-23.32a49.86,49.86,0,0,0,7.18-9.11,40.11,40.11,0,0,0,4.15-10.08,66,66,0,0,0,2.09-19.81A82.27,82.27,0,0,0,658.2,452.44Z"/><path class="cls-15" d="M759.35,312.55A68.38,68.38,0,0,0,748.12,285,62.32,62.32,0,0,0,744,279.7c-1.55-1.53-3-3.12-4.55-4.4a47.87,47.87,0,0,0-9.4-6.37,49.26,49.26,0,0,0-15.85-4.77c-3.94-.5-6.2-.61-6.22-1s2.24-.78,6.34-.84a30.77,30.77,0,0,1,3.25.1,95.09,95.09,0,0,0-3.87-18.72A90.68,90.68,0,0,0,704.55,224a64.45,64.45,0,0,0-7.65-10.15,59.69,59.69,0,0,0-10.36-8.74,70.39,70.39,0,0,0-24.19-10.26,75.55,75.55,0,0,0-21.57-1.57,67.09,67.09,0,0,0-17.09,3.52,48.77,48.77,0,0,1,5.43,18.8c.08,1.41.12,2.64.18,3.73s-.06,2-.12,2.72c-.11,1.47-.23,2.22-.4,2.22s-.33-.75-.54-2.19c-.09-.72-.19-1.6-.32-2.64s-.37-2.24-.6-3.58a52.4,52.4,0,0,0-8.49-20.9,51.77,51.77,0,0,0-10.74-11.16,67.73,67.73,0,0,0-15.56-8.8A106.34,106.34,0,0,0,552,167.7,80.84,80.84,0,0,0,531,170.53a79.1,79.1,0,0,0-18.23,7.65,69.65,69.65,0,0,0-14.18,10.88c-.94,1-1.89,2-2.81,3s-1.65,2.11-2.47,3.14a52.81,52.81,0,0,0-4.12,6.24c-1.16,2.07-2.08,4.17-3,6.12-.67,2-1.44,3.95-1.95,5.78s-.81,3.6-1.19,5.19c-.17,1.42-.31,2.72-.46,3.92,1.4,4.47,2.52,8.88,3.42,13.22,2.53-11.18,9.43-20.42,19.48-26.8,11.09-7,24.32-10.42,37.28-11.76,13.57-1.41,28.35-1,41,4.49s20.82,15.28,26.3,26.82c1,.35,2,.7,2.93,1.08a45.24,45.24,0,0,1,14,8.59,22,22,0,0,1,6.09,9.28c0,.14.09.29.13.44,0,0,0-.07,0-.09,1.13-4.46-.23-8.21.63-8.71.4-.23,1.38.48,2.2,2.22a11.91,11.91,0,0,1-3.19,13.57c-1.5,1.17-2.72,1.38-3,1-.44-.71,1.55-2.76,2.74-6.11-.21-.5-.48-1.11-.81-1.8a24.76,24.76,0,0,0-6.49-7.94,48,48,0,0,0-13.43-7.4c4.91,12,7.31,25.53,8.94,38,16-11.4,39-12.48,57.28-6.61,8.1,2.6,16,6.86,21.56,13.4,5.13,6,7.07,14.32,8.29,21.94a88,88,0,0,1,.27,28.1,43.7,43.7,0,0,1-3.77,12.46c-.66,1.31-2.26,2.93-2.69,4.26-.37,1.15-.45.44-.25,1.21s2.58,2.59,3.19,3.27c27.91,31.5-7.76,74.14-43,75.57.07.53.12,1.05.18,1.58,1-.81,1.7-1.33,2-1.14s0,1.91-1.72,4l-.07.08a44.59,44.59,0,0,1-2.87,18.4,45.16,45.16,0,0,1,1.48,4.64,80.29,80.29,0,0,1,3,17c0,.87.11,1.78.13,2.7a34.57,34.57,0,0,0,4.54,3.66,23.72,23.72,0,0,0,7.19,3.12,27,27,0,0,0,10.32.27A67.83,67.83,0,0,0,734.09,444a64.39,64.39,0,0,0,6.06-16.31,69,69,0,0,0-.09-30.81,54.78,54.78,0,0,0-4.25-12.08,26.36,26.36,0,0,0-6.26-8.17,19.94,19.94,0,0,0-6.81-3.75c-4.16-1.23-6.72-.56-6.78-1,0-.17.56-.5,1.76-.77a13.77,13.77,0,0,1,5.44,0,19.23,19.23,0,0,1,8,3.44,21.89,21.89,0,0,1,2.12,1.72c1-.21,2.57-.51,4.5-1.09a24.28,24.28,0,0,0,12.65-9.66c4-5.61,6.89-13.63,8.48-22.8A95.74,95.74,0,0,0,759.35,312.55Z"/><path class="cls-15" d="M344.42,431.35a28.3,28.3,0,0,1-7.08-1,45.72,45.72,0,0,1-5.5,7.32,50.85,50.85,0,0,1-16.59,11.94,85.17,85.17,0,0,1-23.62,7.16,92.66,92.66,0,0,1-28.36-.3c-2.3-.39-4.6-.87-6.93-1.46-.35.92-.86,2.2-1.36,3.85a33.41,33.41,0,0,0-1,15.14,37,37,0,0,0,10.2,19.67,45.58,45.58,0,0,0,10.52,8.08,50,50,0,0,0,40.6,3.48c3.83-1.34,7.46-2.71,10.78-4.15,0-.17,0-.25.07-.25s.12,0,.21.12a64.66,64.66,0,0,0,10.07-5.23,41.44,41.44,0,0,0,11.22-10.51c.67-1,1.26-1.81,1.72-2.5a10.46,10.46,0,0,1-3.87-3.81c-1-1.82-1-3.16-.57-3.31s1.24.69,2.49,1.76a16.61,16.61,0,0,0,5.45,3.12,16.33,16.33,0,0,0,6.24.8c1.65-.08,2.81-.34,3.06.12s-.55,1.47-2.45,2.31a11.56,11.56,0,0,1-8,.12,7.76,7.76,0,0,1-1.26-.52c-.31.82-.75,1.76-1.3,2.87a36.6,36.6,0,0,1-10.86,12.27,61.79,61.79,0,0,1-10.08,6c.61,1.09,1.36,2.37,2.35,3.83a51,51,0,0,0,17.11,15.33A73.94,73.94,0,0,0,362.33,530a80.59,80.59,0,0,0,18,3.35,118,118,0,0,0,41.76-5.26,123.73,123.73,0,0,0,20.29-8.19A128.62,128.62,0,0,0,459.68,509c29.11-21.42,25.37-43.58,29.11-47.89C469.61,470.08,374.18,495.3,344.42,431.35Z"/><path class="cls-10" d="M629.3,219.28c0,1.07-.06,2-.12,2.72-.11,1.47-.23,2.22-.4,2.22s-.33-.75-.54-2.19c-.09-.72-.19-1.6-.32-2.64s-.37-2.24-.6-3.58a52.4,52.4,0,0,0-8.49-20.9,51.77,51.77,0,0,0-10.74-11.16,67.73,67.73,0,0,0-15.56-8.8A106.34,106.34,0,0,0,552,167.7,80.84,80.84,0,0,0,531,170.53a79.1,79.1,0,0,0-18.23,7.65,69.65,69.65,0,0,0-14.18,10.88c-.94,1-1.89,2-2.81,3s-1.65,2.11-2.47,3.14a52.81,52.81,0,0,0-4.12,6.24c-1.16,2.07-2.08,4.17-3,6.12-.67,2-1.44,3.95-1.95,5.78s-.81,3.6-1.19,5.19c-.17,1.42-.31,2.72-.46,3.92l-.06.54c-.09.69-.17,1.32-.23,1.93s0,1.15,0,1.67c-.05,1-.07,1.95-.09,2.66-.08,1.45-.21,2.22-.37,2.24s-.36-.73-.57-2.18c-.13-.71-.25-1.61-.38-2.68-.06-.54-.12-1.13-.19-1.73s0-1.28,0-2c0-1.39,0-3,.12-4.67,0-.25.08-.51.13-.78.23-1.46.46-3.06.73-4.73.42-2,1.09-4,1.7-6.22.83-2.09,1.71-4.36,2.84-6.64a56.93,56.93,0,0,1,4.13-6.8c.82-1.11,1.57-2.31,2.51-3.42l2.89-3.31a71.68,71.68,0,0,1,14.77-11.91,81.67,81.67,0,0,1,19.22-8.36A83.76,83.76,0,0,1,552,163a106.11,106.11,0,0,1,42.24,8,68.63,68.63,0,0,1,16.29,9.74,52.29,52.29,0,0,1,11.08,12.35c.54.86,1,1.72,1.5,2.56a8.93,8.93,0,0,1,.61,1.13,48.77,48.77,0,0,1,5.43,18.8C629.2,217,629.24,218.19,629.3,219.28Z"/><path class="cls-10" d="M387.14,179.81c-.12.08-.75-.42-1.82-1.47-.52-.52-1.15-1.17-1.93-1.94s-1.74-1.55-2.76-2.5a47.62,47.62,0,0,0-20.52-10.64c-9.51-2.26-21.72-1.5-33.55,3.9a62,62,0,0,0-16.82,11.2,60.18,60.18,0,0,0-12.83,17.34,51.64,51.64,0,0,0-5,20.86,54.9,54.9,0,0,0,3.33,19.77,61.41,61.41,0,0,0,9.13,15.89,68.64,68.64,0,0,0,11.31,11.5,56,56,0,0,0,20.73,10.57c1.36.32,2.58.59,3.63.82s2,.27,2.7.4c1.46.25,2.24.44,2.24.61s-.78.27-2.31.35c-.75,0-1.69.09-2.8,0s-2.39-.25-3.83-.42c-5.72-.79-13.91-3.6-22.37-9.71a68,68,0,0,1-12.33-11.69,64.25,64.25,0,0,1-10.14-16.79,57.84,57.84,0,0,1-3.89-21.42,55.18,55.18,0,0,1,.62-7.31c.07-.48.15-1,.23-1.47a54.22,54.22,0,0,1,4.49-14A63.22,63.22,0,0,1,306.62,175a65,65,0,0,1,18.2-11.77,59.86,59.86,0,0,1,19.06-4.75,51.29,51.29,0,0,1,17,1.61,45.32,45.32,0,0,1,12.19,5.34c.36.23.69.46,1,.67a48.13,48.13,0,0,1,7.74,6.51c1,1.09,1.87,2,2.56,2.87l1.61,2.31C386.91,179,387.29,179.7,387.14,179.81Z"/><path class="cls-10" d="M488.56,272.26a80,80,0,0,1-5.19,23.48,38.06,38.06,0,0,1-2.79,5.92c-.73,1.3-1.17,1.95-1.32,1.87s0-.86.46-2.26,1.28-3.4,1.91-6.12a94.12,94.12,0,0,0,3.62-23.1A141.7,141.7,0,0,0,482,237.56a150.46,150.46,0,0,0-5.76-19.64,98.93,98.93,0,0,0-9.42-19.58,71.21,71.21,0,0,0-14.66-15.77,95.21,95.21,0,0,0-17.06-10.91,93.46,93.46,0,0,0-32.92-9.61,58.67,58.67,0,0,0-23,2.16c-2.09.67-3.77,1.34-5,1.86-1.93.82-3,1.32-3.08,1.11s.58-.79,2.05-1.78a35,35,0,0,1,5.45-2.91c5.23-2.3,13.54-4.23,23.81-3.75a91.13,91.13,0,0,1,34.59,9A95.94,95.94,0,0,1,455,179a74,74,0,0,1,15.69,16.75,99.3,99.3,0,0,1,9.84,20.61c.12.38.27.75.4,1.13.56,1.66,1.13,3.33,1.63,5a135.56,135.56,0,0,1,3.64,14.21A132.36,132.36,0,0,1,488.56,272.26Z"/><path class="cls-10" d="M368.42,223.94c.06.42-2.48,1.34-6.82,1.44a31.8,31.8,0,0,1-16.32-4.26,28.47,28.47,0,0,1-7.2-6.16,24.17,24.17,0,0,1-3.89-6.66c-1.51-4.13-1.36-6.87-1-6.93.56-.11,1.29,2.39,3.23,5.88a29.21,29.21,0,0,0,4.07,5.58,31.44,31.44,0,0,0,6.55,5.26,39.73,39.73,0,0,0,14.67,4.81C365.75,223.42,368.35,223.4,368.42,223.94Z"/><path class="cls-10" d="M382.39,197.06c-.07.28-1.06.41-2.53-.18a8.94,8.94,0,0,1-4.32-4.19,12.12,12.12,0,0,1-1.36-5.72c0-1.5.36-2.4.67-2.39.71,0,1,3.51,2.77,7a12.16,12.16,0,0,0,3.08,3.85C381.71,196.27,382.48,196.72,382.39,197.06Z"/><path class="cls-10" d="M428.85,279.88c0,.2-1.94.59-5.53.66a60.64,60.64,0,0,1-15.09-1.8,59.33,59.33,0,0,1-20.54-9.54,52.48,52.48,0,0,1-17.28-21.75c-3.9-9.2-4.88-19.13-3-27.65A43.18,43.18,0,0,1,378,199.68a37.09,37.09,0,0,1,12.46-8.83,22.76,22.76,0,0,1,4-1.27c.93-.21,1.42-.26,1.46-.14s-.39.39-1.22.81-2.06,1-3.59,1.83a41.61,41.61,0,0,0-11.21,9.26,42.58,42.58,0,0,0-9.23,19.12,44.27,44.27,0,0,0,3,25.61,51.19,51.19,0,0,0,16,20.54,61.18,61.18,0,0,0,19.26,9.73,77.65,77.65,0,0,0,14.49,2.83C426.88,279.52,428.84,279.6,428.85,279.88Z"/><path class="cls-10" d="M313.74,294.79c-.08-.23.23-.6.85-1.07s1.54-1,2.61-1.77a20.49,20.49,0,0,0,6.7-6.84,29.37,29.37,0,0,0,2.73-9.43c.42-2.64.82-4.34,1.32-4.33s1,1.66,1.17,4.45a20.24,20.24,0,0,1-2.14,11,16.73,16.73,0,0,1-4.18,4.86,18,18,0,0,1-4.45,2.49,12.32,12.32,0,0,1-3.27.84C314.28,295.09,313.82,295,313.74,294.79Z"/><path class="cls-10" d="M291.65,208.5c0,.35-1.32.42-3.69.65a70.41,70.41,0,0,0-16.1,3.22,60.37,60.37,0,0,0-18.66,10.49,76.07,76.07,0,0,0-8.92,9,80.42,80.42,0,0,0-7.58,11.33,75.53,75.53,0,0,0-8.33,24.92,63.37,63.37,0,0,0-.65,11.47c.12,1.8.18,3.54.46,5.2a46.45,46.45,0,0,0,.83,4.73A44.21,44.21,0,0,0,234.44,303c.84,1.53,1.67,2.58,2.16,3.4,0,0,0,0,0,0,.48.77.69,1.23.56,1.34s-.54-.15-1.28-.76l-.33-.29A16.77,16.77,0,0,1,233,304a37.26,37.26,0,0,1-7.14-13.65,41.87,41.87,0,0,1-1.21-5,49.8,49.8,0,0,1-.76-5.53,62.77,62.77,0,0,1,.23-12.27,74.38,74.38,0,0,1,8.5-26.61,79.76,79.76,0,0,1,8.17-12,73.81,73.81,0,0,1,9.74-9.45,58.27,58.27,0,0,1,20.42-10.3,52.5,52.5,0,0,1,15.22-1.7l2.07.19C290.46,208,291.65,208.25,291.65,208.5Z"/><path class="cls-10" d="M342.47,415.31a31.78,31.78,0,0,1-2.3,9.45,42.59,42.59,0,0,1-8.33,13,50.85,50.85,0,0,1-16.59,11.94,85.17,85.17,0,0,1-23.62,7.16,92.66,92.66,0,0,1-28.36-.3c-2.3-.39-4.6-.87-6.93-1.46a10,10,0,0,1-1-.27,78.06,78.06,0,0,1-21.51-9.13c-2.24-1.62-4.61-3.1-6.76-4.88-1.05-.95-2.12-1.87-3.17-2.81l-1.59-1.42L220.83,435a50.4,50.4,0,0,1-5.43-6.71c-.81-1.19-1.63-2.4-2.47-3.6l-2.09-3.79a101.16,101.16,0,0,1-10.54-63.2,89.55,89.55,0,0,1,3.77-14.8c.13-.42.28-.82.44-1.22a77,77,0,0,1,4.84-10.87c4.25-7.85,9.7-14.51,16-19a34.4,34.4,0,0,1,9.53-4.9c.21-.08.44-.15.65-.21l.63-.17.42-.12a26.79,26.79,0,0,1,8.35-.9,27.54,27.54,0,0,1,14.72,5,19.81,19.81,0,0,1,6.35,7.46,12.05,12.05,0,0,1,.86,2.38c.12.57.16.86.08.88s-.25-.21-.54-.71a19.8,19.8,0,0,0-1.24-2.09,20.91,20.91,0,0,0-6.53-6.39,26.18,26.18,0,0,0-13.76-3.85c-5.59-.11-11.92,2-17.57,6.34-8.48,6.43-15.33,17.15-19.48,30,0,.15-.1.29-.14.44a90.57,90.57,0,0,0-3.14,13.42A98.43,98.43,0,0,0,215,418.64c.67,1.2,1.34,2.41,2,3.6s1.53,2.22,2.29,3.33a46.77,46.77,0,0,0,5,6.2l1.32,1.49,1.47,1.3c1,.88,2,1.76,2.93,2.61,2,1.68,4.21,3.06,6.28,4.61A77.87,77.87,0,0,0,264,452.25a90.17,90.17,0,0,0,27.07.71,84.23,84.23,0,0,0,22.79-6.32A49.32,49.32,0,0,0,330,435.92a45.91,45.91,0,0,0,5.17-6.16,40.29,40.29,0,0,0,3.4-5.76c3.43-7.33,3.35-12.08,3.83-12.08C342.49,411.92,342.62,413.09,342.47,415.31Z"/><path class="cls-10" d="M282,406.4c-1-.31.91-7.53-.44-16.3-1.18-8.8-5-15.18-4.17-15.76.37-.26,1.87,1,3.56,3.7a31.16,31.16,0,0,1,3.42,23.81C283.46,404.89,282.38,406.55,282,406.4Z"/><path class="cls-10" d="M343.79,326.89c.35-.1,1.75,5.28-.35,13.72a47.25,47.25,0,0,1-6.15,13.73A62.84,62.84,0,0,1,325,368a110.2,110.2,0,0,1-14.88,10.46,132.49,132.49,0,0,1-13.05,7,28.5,28.5,0,0,1-9.81,2.6c-2.42.1-3.72-.28-3.71-.49,0-.53,5.25-.37,12.45-4.35,3.58-1.91,7.79-4.59,12.41-7.52a132.52,132.52,0,0,0,14.31-10.38,67.11,67.11,0,0,0,11.84-12.79,51.08,51.08,0,0,0,6.45-12.63C343.63,332.17,343.18,326.9,343.79,326.89Z"/><path class="cls-10" d="M357.11,322.35c.36.25-.08,1.73-1.81,3.4a14.2,14.2,0,0,1-17.35,1c-1.92-1.46-2.52-2.87-2.2-3.17s1.55.31,3.41,1a18.19,18.19,0,0,0,14.68-.86C355.61,322.84,356.7,322,357.11,322.35Z"/><path class="cls-10" d="M285.4,321c-.34.43-2.21-.85-5.51-1.56a15.28,15.28,0,0,0-19,12.39c-.68,3.3-.26,5.52-.79,5.66s-1.76-2-1.68-5.93a16.42,16.42,0,0,1,7.29-13.08,16.36,16.36,0,0,1,8.14-2.56,16.19,16.19,0,0,1,6.77,1.15C284.3,318.59,285.7,320.72,285.4,321Z"/><path class="cls-10" d="M350.87,482.11a10.7,10.7,0,0,1-.42,1.24c-.31.82-.75,1.76-1.3,2.87a36.6,36.6,0,0,1-10.86,12.27,61.79,61.79,0,0,1-10.08,6c-.37.17-.75.35-1.15.52v0c-3.22,1.51-6.7,2.94-10.3,4.34a52.2,52.2,0,0,1-29.8,2.09,53.49,53.49,0,0,1-14.6-5.63A48.88,48.88,0,0,1,261,496.67a38.49,38.49,0,0,1-10.32-22.2,31.2,31.2,0,0,1,2.61-16.23,22.22,22.22,0,0,1,2-3.45c.79-1.07,1.36-1.51,1.48-1.43s0,.67-.44,1.7-.86,2.2-1.36,3.85a33.41,33.41,0,0,0-1,15.14,37,37,0,0,0,10.2,19.67,45.58,45.58,0,0,0,10.52,8.08,50,50,0,0,0,40.6,3.48c3.83-1.34,7.46-2.71,10.78-4.15a1.17,1.17,0,0,0,.28-.13,64.66,64.66,0,0,0,10.07-5.23,41.44,41.44,0,0,0,11.22-10.51c.67-1,1.26-1.81,1.72-2.5.27-.39.5-.75.69-1,.57-.82.94-1.24,1.09-1.18S351.16,481.15,350.87,482.11Z"/><path class="cls-10" d="M490.59,461.38A74,74,0,0,1,485,484.86c-.1.25-.23.5-.35.75s-.32.73-.51,1.11a62.3,62.3,0,0,1-7.93,12.5,82.18,82.18,0,0,1-14,13.28A129.53,129.53,0,0,1,444.48,524q-4.39,2.31-9.11,4.27c-1.11.48-2.24.94-3.37,1.36-2.79,1.09-5.66,2.07-8.57,3-14.89,4.55-29.9,6.26-43.45,5.09a81.87,81.87,0,0,1-18.89-4A73.39,73.39,0,0,1,346,526.45a51.92,51.92,0,0,1-13.4-11.83l-.32-.44a36.11,36.11,0,0,1-3.22-4.95,37.49,37.49,0,0,1-1.95-4.23v0a14,14,0,0,1-1-3.85c0-.17,0-.25.07-.25s.12,0,.21.12c.33.4.88,1.64,1.9,3.46.61,1.09,1.36,2.37,2.35,3.83a51,51,0,0,0,17.11,15.33A73.94,73.94,0,0,0,362.33,530a80.59,80.59,0,0,0,18,3.35,118,118,0,0,0,41.76-5.26,123.73,123.73,0,0,0,20.29-8.19A131.31,131.31,0,0,0,459.68,509a82.37,82.37,0,0,0,13.59-12.31A62.53,62.53,0,0,0,482,483.48a86.27,86.27,0,0,0,6.76-22.33c.56-2.72.77-4.9,1.07-6.34s.5-2.22.65-2.22.27.79.29,2.28A51.68,51.68,0,0,1,490.59,461.38Z"/><path class="cls-10" d="M663.9,472.86v0a61.76,61.76,0,0,1-1.78,16.86,44.35,44.35,0,0,1-4.34,11.16,53.86,53.86,0,0,1-7.64,10,77.76,77.76,0,0,1-21.59,15.73,109.16,109.16,0,0,1-26.95,9.19c-2,.42-4,.8-6,1.11h0c-.82.15-1.61.25-2.41.36a132.34,132.34,0,0,1-46-1.64l0,0-.14,0c-1.24-.27-2.45-.54-3.65-.86a125.11,125.11,0,0,1-19.16-6.39,90,90,0,0,1-18.3-10.09c-10.56-7.39-16.8-16.27-19.46-22.93a35,35,0,0,1-2.19-7.94c0-.25-.05-.48-.07-.71-.12-1.42-.12-2.16,0-2.18s.3.36.51,1.07a53.63,53.63,0,0,0,3.41,9c3.06,6.13,9.34,14.21,19.68,21a91.31,91.31,0,0,0,17.89,9.21,130.53,130.53,0,0,0,75,6.47c18.36-3.77,35.18-11.72,46.38-23.32a49.86,49.86,0,0,0,7.18-9.11,40.11,40.11,0,0,0,4.15-10.08,66,66,0,0,0,2.09-19.81,82.27,82.27,0,0,0-2.24-16.5c-.48-2.41-1.23-4.59-1.78-6.62s-1.32-3.83-1.86-5.48c-1-2.49-1.84-4.59-2.53-6.16q-.28-.69-.57-1.26c-.42-.94-.69-1.63-.84-2.09s-.16-.59-.1-.63.27.15.58.57a19.8,19.8,0,0,1,1.18,1.69c.29.42.6.92,1,1.49.86,1.47,1.84,3.37,3,5.68.72,1.63,1.51,3.43,2.31,5.46s1.59,4.25,2.2,6.7a80.29,80.29,0,0,1,3,17c0,.87.11,1.78.13,2.7C663.9,471.94,663.92,472.4,663.9,472.86Z"/><path class="cls-10" d="M744.63,428.65a66.2,66.2,0,0,1-6.39,17.51,68.3,68.3,0,0,1-24.44,26,66.07,66.07,0,0,1-27.49,9.67,28.35,28.35,0,0,1-11.42-1,23,23,0,0,1-7.56-4.19,21,21,0,0,1-3.43-3.73v0c-.82-1.17-1-1.95-.94-2s.39.14.92.63a34.57,34.57,0,0,0,4.54,3.66,23.72,23.72,0,0,0,7.19,3.12,27,27,0,0,0,10.32.27A67.83,67.83,0,0,0,734.09,444a64.39,64.39,0,0,0,6.06-16.31,69,69,0,0,0-.09-30.81,54.78,54.78,0,0,0-4.25-12.08,26.36,26.36,0,0,0-6.26-8.17,19.94,19.94,0,0,0-6.81-3.75c-4.16-1.23-6.72-.56-6.78-1,0-.17.56-.5,1.76-.77a13.77,13.77,0,0,1,5.44,0,19.23,19.23,0,0,1,8,3.44,21.89,21.89,0,0,1,2.12,1.72c.33.31.67.62,1,1a31.07,31.07,0,0,1,4.46,6,53.57,53.57,0,0,1,5.11,12.71,68.74,68.74,0,0,1,2.35,15.5A69.83,69.83,0,0,1,744.63,428.65Z"/><path class="cls-10" d="M764.9,328.28a97.22,97.22,0,0,1-1.76,15.2c-1.93,9.6-5.3,18.08-10.07,24s-10.75,8.86-14.89,9.45a20.41,20.41,0,0,1-3.92.27c-1.63,0-2.51-.31-2.51-.46s.54-.32,1.51-.5,2.57-.51,4.5-1.09a24.28,24.28,0,0,0,12.65-9.66c4-5.61,6.89-13.63,8.48-22.8a95.74,95.74,0,0,0,.46-30.14A68.38,68.38,0,0,0,748.12,285,62.32,62.32,0,0,0,744,279.7c-1.55-1.53-3-3.12-4.55-4.4a47.87,47.87,0,0,0-9.4-6.37,49.26,49.26,0,0,0-15.85-4.77c-3.94-.5-6.2-.61-6.22-1s2.24-.78,6.34-.84a30.77,30.77,0,0,1,3.25.1,8.28,8.28,0,0,1,.84.09,44.84,44.84,0,0,1,13.06,3.41,46.76,46.76,0,0,1,10.45,6.37,58,58,0,0,1,5.09,4.56,67.2,67.2,0,0,1,4.65,5.55A69.2,69.2,0,0,1,764,311.78,83.78,83.78,0,0,1,764.9,328.28Z"/><path class="cls-10" d="M718.79,258a23.24,23.24,0,0,1-.36,4.15q0,.19-.06.36c-.15.71-.3,1.06-.44,1.06s-.27-.39-.4-1.15a95.09,95.09,0,0,0-3.87-18.72A90.68,90.68,0,0,0,704.55,224a64.45,64.45,0,0,0-7.65-10.15,59.69,59.69,0,0,0-10.36-8.74,70.39,70.39,0,0,0-24.19-10.26,75.55,75.55,0,0,0-21.57-1.57,67.09,67.09,0,0,0-17.09,3.52c-1.67.54-2.59.86-2.7.63s.59-.84,2.09-1.76c.7-.42,1.55-.9,2.58-1.4a49.59,49.59,0,0,1,14.76-4.3,71,71,0,0,1,22.81.65,69.81,69.81,0,0,1,25.92,10.6,59.52,59.52,0,0,1,11.14,9.53,63.67,63.67,0,0,1,8,11,80.82,80.82,0,0,1,8.59,21.09A59.48,59.48,0,0,1,718.79,258Z"/><path class="cls-10" d="M362.12,481.44c.25.38-.55,1.47-2.45,2.31a11.56,11.56,0,0,1-8,.12,7.76,7.76,0,0,1-1.26-.52,7.57,7.57,0,0,1-1.13-.59,10.46,10.46,0,0,1-3.87-3.81c-1-1.82-1-3.16-.57-3.31s1.24.69,2.49,1.76a16.61,16.61,0,0,0,5.45,3.12,16.33,16.33,0,0,0,6.24.8C360.71,481.24,361.87,481,362.12,481.44Z"/><path class="cls-10" d="M625.14,286.29c.2.1.07,1-.66,2.41a16.79,16.79,0,0,1-4.36,5.12c-4.39,3.66-12,6.69-20.7,6.74a38.22,38.22,0,0,1-20.86-6c-4.71-3.09-6.7-6-6.41-6.29.39-.42,2.94,1.79,7.65,4.14A43.81,43.81,0,0,0,599.41,297c7.91-.05,14.94-2.44,19.25-5.23S624.65,286,625.14,286.29Z"/><path class="cls-10" d="M684.34,324.68c.06-.07.53.12.73.95a4.12,4.12,0,0,1-1,3.22,23.61,23.61,0,0,1-9.62,6.57,46.66,46.66,0,0,1-16.9,2.71,75.66,75.66,0,0,1-20.64-2.82,53.5,53.5,0,0,1-18.7-9.45,43.34,43.34,0,0,1-11-13.15,33.26,33.26,0,0,1-3.67-10.92c-.36-2.7-.16-4.21,0-4.22.64-.12.89,6,5.79,13.9a44.77,44.77,0,0,0,10.84,11.84,54,54,0,0,0,17.68,8.62,80.55,80.55,0,0,0,19.71,3,49,49,0,0,0,16-1.82A26.53,26.53,0,0,0,683,328a4,4,0,0,0,1.34-2.27C684.43,325.1,684.22,324.76,684.34,324.68Z"/><path class="cls-10" d="M636.65,248.54a11.64,11.64,0,0,1-3.79,6.28c-1.5,1.17-2.72,1.38-3,1-.44-.71,1.55-2.76,2.74-6.11a12.91,12.91,0,0,0,.57-1.88s0-.07,0-.09c1.13-4.46-.23-8.21.63-8.71.4-.23,1.38.48,2.2,2.22A11.56,11.56,0,0,1,636.65,248.54Z"/><path class="cls-10" d="M633.53,251.43c-.12,0-.31-.3-.56-.9a7.67,7.67,0,0,0-.34-.82c-.21-.5-.48-1.11-.81-1.8a24.76,24.76,0,0,0-6.49-7.94,48.26,48.26,0,0,0-13.49-7.43,134,134,0,0,0-18.53-5.13,145.87,145.87,0,0,0-34.87-2.64c-9,.36-14.55,1.26-14.66.71s5.4-2.18,14.47-3.2A117.81,117.81,0,0,1,594,224a113.51,113.51,0,0,1,19,5.57,45.24,45.24,0,0,1,14,8.59,22,22,0,0,1,6.09,9.28c0,.14.09.29.13.44a11.7,11.7,0,0,1,.46,2.53C633.7,251.05,633.66,251.41,633.53,251.43Z"/><path class="cls-10" d="M662.2,428.67a15.49,15.49,0,0,1-3.62,3.1,18.13,18.13,0,0,1-5.34,2.18.07.07,0,0,1-.06,0c-.38.08-.78.15-1.15.21a19,19,0,0,1-4.67.13,14.7,14.7,0,0,1-4.61-1.24c-2.47-1.17-3.52-2.53-3.27-2.89s1.76.08,4,.52a22.24,22.24,0,0,0,7.1.13,1.91,1.91,0,0,0,.48-.06,10.46,10.46,0,0,0,1.3-.23,22.58,22.58,0,0,0,8.09-3.69c1.88-1.36,3-2.47,3.43-2.2S663.92,426.56,662.2,428.67Z"/><path class="cls-10" d="M544.09,371.53c.27.35-1,1.69-3.58,3.88-1.36,1-3.13,2-5.19,3.24-2.13,1-4.59,2.2-7.37,3.28a96.39,96.39,0,0,1-9.28,2.93c-1.7.42-3.44.94-5.26,1.3l-5.62,1.09a177.41,177.41,0,0,1-71-2.59c-11.43-3.06-17.93-6.59-17.64-7.3.35-.93,7.26,1,18.59,2.87a249.93,249.93,0,0,0,44.62,3,224.29,224.29,0,0,0,24.53-1.8l5.46-.79c1.77-.24,3.45-.65,5.1-.94,3.33-.54,6.3-1.42,9.08-2.06s5.17-1.57,7.33-2.25l5.38-2.11C542.06,371.84,543.82,371.19,544.09,371.53Z"/><path class="cls-10" d="M549.67,378.9c-.27.58-1.56.71-3.33-.13a11.76,11.76,0,0,1-5.9-12.8c.52-1.88,1.46-2.78,2.07-2.61,1.28.43,1.25,4.16,3.11,8C547.32,375.25,550.18,377.65,549.67,378.9Z"/><path class="cls-10" d="M418.87,372c.63-.14,1.45.5,1.87,1.91a7.91,7.91,0,0,1-4.86,9.16c-1.41.44-2.4.12-2.62-.48s.16-1.42.68-2.31,1.19-1.94,1.84-3.14,1.13-2.33,1.57-3.28S418.21,372.18,418.87,372Z"/><path class="cls-10" d="M525.57,344.17c.6-.13,1.94,1.51,2,5a9,9,0,0,1-2.3,6,10.07,10.07,0,0,1-7.38,3.17A11.93,11.93,0,0,1,510.5,356a9.17,9.17,0,0,1-3.52-5.36,7,7,0,0,1,.31-4.14c.42-.87.85-1.25,1.19-1.17.75.13.75,2.12,1.92,4.11a7.3,7.3,0,0,0,2.76,2.66,9.38,9.38,0,0,0,4.62,1.14,6.2,6.2,0,0,0,6.19-4.59C524.77,346.27,524.81,344.28,525.57,344.17Z"/><path class="cls-10" d="M446.83,346.79c.59-.12,1.94,1.51,2,5a9,9,0,0,1-2.3,6,10.15,10.15,0,0,1-7.38,3.18,12.05,12.05,0,0,1-7.38-2.36,9.26,9.26,0,0,1-3.53-5.37,7,7,0,0,1,.32-4.13c.42-.88.85-1.26,1.19-1.18.75.13.74,2.12,1.92,4.12a7.21,7.21,0,0,0,2.76,2.65,9.38,9.38,0,0,0,4.62,1.14,6.18,6.18,0,0,0,6.19-4.58C446,348.89,446.07,346.91,446.83,346.79Z"/><g class="cls-16"><path class="cls-13" d="M466.47,334.41c-5.8,9.5-5,26.84,10.63,29.32,7.44,1.17,15.94-1.15,18.91-8.57s-1.66-21.28-8.64-25.2S470.74,327.45,466.47,334.41Z"/></g><path class="cls-10" d="M494.29,336.44c.57-.29,3.77,3.29,4.42,10.88a17.82,17.82,0,0,1-4.06,12.9,17.3,17.3,0,0,1-7.07,4.71,22.94,22.94,0,0,1-8.85.93c-5.81-.41-11.94-3.49-14.87-8.19a18.83,18.83,0,0,1-2.66-13.3c1.41-7.43,4.79-10.64,5.37-10.29.92.4-.87,4.45-1,10.71a16.23,16.23,0,0,0,3,9.66c2.27,3,6,4.8,10.66,5.23a18.94,18.94,0,0,0,6.34-.52,12.68,12.68,0,0,0,4.78-2.83,14.91,14.91,0,0,0,3.92-9.13C494.85,341,493.31,336.75,494.29,336.44Z"/><path class="cls-10" d="M483.14,401.79c0,.69-2.41,1.53-6.51,1.91a57.92,57.92,0,0,1-31-6.53c-3.59-2-5.5-3.76-5.18-4.37.69-1.3,9.72,2.41,21.29,4.79S483,400.32,483.14,401.79Z"/><path class="cls-10" d="M493.84,401a2.25,2.25,0,1,1-4.27.74c.24-1.4,1-2.44,1.75-2.59S493.15,399.75,493.84,401Z"/><path class="cls-10" d="M505.37,398.19a1.8,1.8,0,0,1,1.28,1.54,2.9,2.9,0,0,1-3.78,2.88,1.8,1.8,0,0,1-1.15-1.64,7.17,7.17,0,0,1,.25-1.87c.13-.51.21-.86.43-1s.58-.15,1.1-.14A7.09,7.09,0,0,1,505.37,398.19Z"/><path class="cls-10" d="M208.28,345.05c0,.05-.23,0-.56-.14a31.8,31.8,0,0,1-3.65-2.05c-.77-.51-1.67-1.09-2.66-1.76a132.28,132.28,0,0,1-16.52-13.87c-13.15-12.67-28.92-32.39-44.39-55.34-7.71-11.48-15-22.49-20.94-32.94a183.33,183.33,0,0,1-13.7-29,107.88,107.88,0,0,1-3.6-11.85c-.82-3.62-.61-7.29,1.19-9.65a4.45,4.45,0,0,1,3.44-1.68,6.14,6.14,0,0,1,2.61.48l.15.07c1.21.56,1.57,1.32,1.45,1.36s-.47-.27-1.37-.55l-.48-.1A5.91,5.91,0,0,0,107,188a3.16,3.16,0,0,0-2.28,1.42c-1.17,1.86-1.24,4.92-.27,8.21s2.38,7.22,4,11.37a209.73,209.73,0,0,0,14.24,28.1c6.09,10.22,13.4,21.15,21.09,32.59,15.39,22.82,30.63,42.59,43.07,55.57a187.14,187.14,0,0,0,15.48,14.62c.79.67,1.53,1.26,2.15,1.78,1.64,1.34,2.79,2.28,3.35,2.83C208.18,344.78,208.32,345,208.28,345.05Z"/><path class="cls-10" d="M134.59,199c-.1.06-.31-.12-.63-.5v0a66.51,66.51,0,0,1-4.08-6.81,53.08,53.08,0,0,0-5-7.66,11.4,11.4,0,0,0-3.71-3.12,9,9,0,0,0-5-.19,4.6,4.6,0,0,0-3.44,2.78,10.2,10.2,0,0,0-.46,4.78,30.18,30.18,0,0,0,2.47,8.61c2.08,4.81,4.27,7.22,4,7.51s-3.14-1.78-5.8-6.64a27.39,27.39,0,0,1-3.26-9.15,2.12,2.12,0,0,1,0-.44c0-.27-.06-.54-.08-.81a10.82,10.82,0,0,1,.61-4.88,7.28,7.28,0,0,1,5.34-4.5,13.05,13.05,0,0,1,3.37-.3,7.93,7.93,0,0,1,3.35.71,13.2,13.2,0,0,1,4.63,4,42.57,42.57,0,0,1,4.71,8.37c1.17,2.7,2,4.86,2.49,6.28C134.57,198.24,134.72,198.93,134.59,199Z"/><path class="cls-10" d="M161,191.64a7.93,7.93,0,0,1-1.93,4,11.89,11.89,0,0,1-2,1.87c-.15.1-.27.2-.42.29-.86.59-1.57,1-2.26,1.51a11.32,11.32,0,0,0-3.14,3.22,2.88,2.88,0,0,0-.15,3,4.35,4.35,0,0,0,2,1.65l.06,0c1.43.61,2.39.67,2.39.92s-1,.49-2.78.11a5.34,5.34,0,0,1-3-1.8,3.59,3.59,0,0,1-.75-1.64v0a4.74,4.74,0,0,1,.42-3.12,12.29,12.29,0,0,1,3.47-4.17c.72-.6,1.6-1.19,2.29-1.71a9.17,9.17,0,0,0,1.9-1.78,5.2,5.2,0,0,0,1.09-4.74,7.1,7.1,0,0,0-3.45-4.25c-3.52-1.76-8.15-.69-11.08,1.24a20.76,20.76,0,0,0-6.49,7.6c-2.71,5.28-2.14,9.19-2.6,9.21-.17,0-.55-.92-.65-2.68a16,16,0,0,1,.06-1.9v0c0-.44.11-.92.19-1.43a20.1,20.1,0,0,1,1.17-4,21.31,21.31,0,0,1,6.83-8.92,15.58,15.58,0,0,1,6.39-2.59,12.11,12.11,0,0,1,7.47,1,9.67,9.67,0,0,1,4.84,6A7.64,7.64,0,0,1,161,191.64Z"/><path class="cls-10" d="M172.2,213.5c-1.51,3.12-3.91,5.13-5.88,5.62l-.42.1a4.71,4.71,0,0,1-.5.08c-1.34.19-2.08-.12-2.06-.23s1.07-.25,2.58-1a9.7,9.7,0,0,0,4.46-5.4,20.49,20.49,0,0,0,1.09-10.64,12.25,12.25,0,0,0-2.28-5.57,6.43,6.43,0,0,0-5.26-2.43,8.94,8.94,0,0,0-3,.54,1.91,1.91,0,0,0-1.15,1.68c-.19,1.8.63,4.12.82,6.45a7.42,7.42,0,0,1-.65,3.77,5.4,5.4,0,0,1-2.87,2.36,7.91,7.91,0,0,1-3.14.61,5.13,5.13,0,0,1-3-.92,5.28,5.28,0,0,1-1.9-3.69v0a5.56,5.56,0,0,1,0-1,6.39,6.39,0,0,1,1.28-3.42c1.27-1.65,2.61-1.63,2.59-1.48s-.92.56-1.67,2.07a5.81,5.81,0,0,0-.63,2.87,3.83,3.83,0,0,0,1.49,3.06,2.65,2.65,0,0,0,1.08.35,5.48,5.48,0,0,0,3-.54,3.21,3.21,0,0,0,1.59-1.38A5.1,5.1,0,0,0,158,203c-.12-1-.33-2-.58-3.14a20.45,20.45,0,0,1-.38-2.26,8.33,8.33,0,0,1,0-1.58,3.91,3.91,0,0,1,.23-1.15l.19-.58c.1-.19.25-.36.35-.55a4.85,4.85,0,0,1,1.93-1.63,10,10,0,0,1,1.28-.42,9.74,9.74,0,0,1,2.91-.4,9,9,0,0,1,7.43,3.52,14.22,14.22,0,0,1,2.68,6.89A21,21,0,0,1,172.2,213.5Z"/><path class="cls-11" d="M234.92,306.9a34.4,34.4,0,0,0-9.53,4.9c-6.34,4.46-11.79,11.12-16,19a77,77,0,0,0-4.84,10.87c-.62-.52-1.36-1.11-2.15-1.78a187.14,187.14,0,0,1-15.48-14.62c-12.44-13-27.68-32.75-43.07-55.57-7.69-11.44-15-22.37-21.09-32.59A209.73,209.73,0,0,1,108.48,209c-1.66-4.15-3.08-8-4-11.37s-.9-6.35.27-8.21A3.16,3.16,0,0,1,107,188a5.91,5.91,0,0,1,2.26.08l.48.1a2.12,2.12,0,0,0,0,.44,27.39,27.39,0,0,0,3.26,9.15c2.66,4.86,5.57,7,5.8,6.64s-1.94-2.7-4-7.51a30.18,30.18,0,0,1-2.47-8.61,10.2,10.2,0,0,1,.46-4.78,4.6,4.6,0,0,1,3.44-2.78,9,9,0,0,1,5,.19,11.4,11.4,0,0,1,3.71,3.12,53.08,53.08,0,0,1,5,7.66,66.51,66.51,0,0,0,4.08,6.81v0a16,16,0,0,0-.06,1.9c.1,1.76.48,2.68.65,2.68.46,0-.11-3.93,2.6-9.21a20.76,20.76,0,0,1,6.49-7.6c2.93-1.93,7.56-3,11.08-1.24a7.1,7.1,0,0,1,3.45,4.25,5.2,5.2,0,0,1-1.09,4.74,9.17,9.17,0,0,1-1.9,1.78c-.69.52-1.57,1.11-2.29,1.71a12.29,12.29,0,0,0-3.47,4.17,4.74,4.74,0,0,0-.42,3.12v0a5.28,5.28,0,0,0,1.9,3.69,5.13,5.13,0,0,0,3,.92,7.91,7.91,0,0,0,3.14-.61,5.4,5.4,0,0,0,2.87-2.36,7.42,7.42,0,0,0,.65-3.77c-.19-2.33-1-4.65-.82-6.45a1.91,1.91,0,0,1,1.15-1.68,8.94,8.94,0,0,1,3-.54,6.43,6.43,0,0,1,5.26,2.43,12.25,12.25,0,0,1,2.28,5.57,20.49,20.49,0,0,1-1.09,10.64,9.7,9.7,0,0,1-4.46,5.4c-1.51.73-2.58.73-2.58,1s.72.42,2.06.23c.25,1.78,2.28,7.88,6.3,15.86a184,184,0,0,0,9.19,16c3.77,5.83,8.17,12.07,13.15,18.35s10.12,11.94,15,16.88a158.39,158.39,0,0,0,13.73,12.33A84.41,84.41,0,0,0,234.92,306.9Z"/><path class="cls-12" d="M210.26,313.83c-2.48,3.65-5.11,9-9.55,10.61-4.13,1.52-7.49-1.73-10.12-4.53-4.85-5.16-9.85-10.11-14.78-15.21a255.41,255.41,0,0,1-30.46-39.09c-8.92-13.76-19.61-27.33-29.65-46.82-1.53-3-10.17-15.4-6.1-16.84,5-1.75,10.24,6.1,11.09,6.51-.2-2.94-4.17-11.6-2.2-13.55,6.58-6.49,15.22,11.22,17.37,14.72-.66-8.18,4.25-16.63,10.79-20.6,5.55-3.37,10.83-.46,10.65,4.66a5.12,5.12,0,0,0,.87-4.4,7.1,7.1,0,0,0-3.45-4.25c-3.52-1.76-8.15-.69-11.08,1.24a20.76,20.76,0,0,0-6.49,7.6c-2.71,5.28-2.14,9.19-2.6,9.21-.17,0-.55-.92-.65-2.68a16,16,0,0,1,.06-1.9v0a66.51,66.51,0,0,1-4.08-6.81,53.08,53.08,0,0,0-5-7.66,11.4,11.4,0,0,0-3.71-3.12,9,9,0,0,0-5-.19,4.6,4.6,0,0,0-3.44,2.78,10.2,10.2,0,0,0-.46,4.78,30.18,30.18,0,0,0,2.47,8.61c2.08,4.81,4.27,7.22,4,7.51s-3.14-1.78-5.8-6.64a27.39,27.39,0,0,1-3.26-9.15,2.12,2.12,0,0,1,0-.44l-.48-.1A5.91,5.91,0,0,0,107,188a3.16,3.16,0,0,0-2.28,1.42c-1.17,1.86-1.24,4.92-.27,8.21s2.38,7.22,4,11.37a209.73,209.73,0,0,0,14.24,28.1c6.09,10.22,13.4,21.15,21.09,32.59,15.39,22.82,30.63,42.59,43.07,55.57a187.14,187.14,0,0,0,15.48,14.62c.79.67,1.53,1.26,2.15,1.78a77,77,0,0,1,4.84-10.87c4.25-7.85,9.7-14.51,16-19a34.4,34.4,0,0,1,9.53-4.9,72,72,0,0,1-8.37-5.33C220,303.12,214,308.39,210.26,313.83Z"/><path class="cls-10" d="M237.2,307.68s0,0,0,.06l0,0a5.86,5.86,0,0,1-2.22-.86,84.41,84.41,0,0,1-12.15-8.19A158.39,158.39,0,0,1,209,286.38c-4.88-4.94-10-10.64-15-16.88s-9.38-12.52-13.15-18.35a184,184,0,0,1-9.19-16c-4-8-6-14.08-6.3-15.86-.05-.29,0-.48,0-.5s.25.11.46.42c1.13,1.53,3.87,7.16,8.27,14.57,2.62,4.49,6,9.66,9.78,15.33s8.31,11.71,13.21,17.91,9.87,11.81,14.52,16.81,9.06,9.3,12.92,12.72c3,2.72,5.61,4.92,7.68,6.65,1.74,1.45,3.08,2.56,3.92,3.31C236.85,307.11,237.2,307.49,237.2,307.68Z"/><path class="cls-10" d="M546.29,478.49c-.35,0-.31-5.27,3.69-12.49a44.57,44.57,0,0,1,9-11.08,59.7,59.7,0,0,1,14.6-9.52,103.08,103.08,0,0,1,16.22-5.93,124.84,124.84,0,0,1,13.69-3.22,27,27,0,0,1,9.64,0c2.24.51,3.34,1.17,3.28,1.36-.13.48-4.91-.95-12.49.93-3.75.87-8.27,2.3-13.23,3.84a127.84,127.84,0,0,0-15.68,6,63.93,63.93,0,0,0-14,8.83,48.35,48.35,0,0,0-9,10C547.72,473.69,546.84,478.63,546.29,478.49Z"/><path class="cls-10" d="M533,479.39c-.27-.33.49-1.57,2.5-2.67a13.47,13.47,0,0,1,16.16,3.33c1.4,1.81,1.6,3.26,1.24,3.45s-1.35-.67-2.89-1.75a17.21,17.21,0,0,0-13.68-2.82C534.44,479.31,533.24,479.78,533,479.39Z"/><circle class="cls-15" cx="377.47" cy="373.57" r="26.78"/><circle class="cls-15" cx="588.73" cy="365.94" r="26.78" transform="matrix(0.15, -0.99, 0.99, 0.15, 136.72, 891.49)"/><path class="cls-11" d="M564.3,575.76c-.27,3.9-1.78,8.34-5.21,9.7s-8.19-.17-12.42-2a31.68,31.68,0,0,1-6-3.64c-1.9-1.47-3.71-3.19-5.67-4.94a42.25,42.25,0,0,0-6.54-5,31.57,31.57,0,0,0-7.87-3.22,135,135,0,0,0-16.48-3.29A237.49,237.49,0,0,0,469,561.67c-24,.31-46.63,2.16-67.18,1.32-20.52-.63-38.88-4.4-52.62-11.48-6.91-3.37-12.65-7.49-16.27-12.25a22.2,22.2,0,0,1-3.86-7.28,21,21,0,0,1-.79-6.92,16.55,16.55,0,0,1,3.1-9.06,13.58,13.58,0,0,1,1.13-1.38A51.92,51.92,0,0,0,346,526.45a73.39,73.39,0,0,0,15.14,7.24,81.87,81.87,0,0,0,18.89,4c13.55,1.17,28.56-.54,43.45-5.09,2.91-.9,5.78-1.88,8.57-3,4.31.46,11.56.94,20.94,1.28,15.73.56,37.42.52,61.33.83a119.78,119.78,0,0,1,17.16,1.07,62.89,62.89,0,0,1,7.83,1.8c1.25.4,2.49.82,3.68,1.28a5,5,0,0,1,.8.33,4.44,4.44,0,0,1,.67.36,13.24,13.24,0,0,1,1.36,1c3.54,3.16,6.3,7.33,8.65,11.14a104.4,104.4,0,0,1,5.88,11.2,81.49,81.49,0,0,1,3.94,10.47A27,27,0,0,1,564.3,575.76Z"/><path class="cls-12" d="M563.8,569a10.64,10.64,0,0,1-2.75,2c-11.59,5.85-26.21-5.64-34.81-12-8.11-6-16-9.58-26.19-10.13a356.78,356.78,0,0,0-39.38-.1c-11.49.64-22.6,2.8-34,4.24-9.8,1.25-19.8,1.38-28.82-3.13a1.05,1.05,0,0,1,.53-1.95c13.92.66,28.26-6,35.28-18.07l-1.69-.17c-2.79,1.09-5.66,2.07-8.57,3-14.89,4.55-29.9,6.26-43.45,5.09a81.87,81.87,0,0,1-18.89-4A73.39,73.39,0,0,1,346,526.45a51.92,51.92,0,0,1-13.4-11.83,13.58,13.58,0,0,0-1.13,1.38,16.55,16.55,0,0,0-3.1,9.06,21,21,0,0,0,.79,6.92,22.2,22.2,0,0,0,3.86,7.28c3.62,4.76,9.36,8.88,16.27,12.25,13.74,7.08,32.1,10.85,52.62,11.48,20.55.84,43.2-1,67.18-1.32a237.49,237.49,0,0,1,35.06,1.78,135,135,0,0,1,16.48,3.29,31.57,31.57,0,0,1,7.87,3.22,42.25,42.25,0,0,1,6.54,5c2,1.75,3.77,3.47,5.67,4.94a31.68,31.68,0,0,0,6,3.64c4.23,1.78,9,3.39,12.42,2s4.94-5.8,5.21-9.7a27,27,0,0,0-.06-5.4C564.11,569.91,564,569.43,563.8,569Z"/><path class="cls-10" d="M565.71,563.37a52.71,52.71,0,0,0-2-5.51c-.83-1.72-1.52-3.44-2.47-5a48.76,48.76,0,0,0-2.7-4.48c-.48-.71-.94-1.4-1.4-2.07-.31-.42-.63-.84-.94-1.24-.84-1.42-1.78-2.84-2.79-4.27a37,37,0,0,0-5.21-6,17.66,17.66,0,0,0-1.76-1.34,10.42,10.42,0,0,0-2.1-1.07c-1.25-.5-2.57-1-3.91-1.4-.53-.17-1.07-.34-1.61-.48,0,0-.07,0-.09,0a32.64,32.64,0,0,0-4.14-1.32c-1.32-.17-2.29-.23-2.87-.25a118.2,118.2,0,0,0-17.34-1.16c-24-.29-45.7.19-61.38.34-7.29.08-13.28.12-17.59.19-5,.1-7.81.25-7.83.54s1.57.5,4.46.82c4.31.46,11.56.94,20.94,1.28,15.73.56,37.42.52,61.33.83a119.78,119.78,0,0,1,17.16,1.07,62.89,62.89,0,0,1,7.83,1.8c1.25.4,2.49.82,3.68,1.28a5,5,0,0,1,.8.33,4.44,4.44,0,0,1,.67.36,13.24,13.24,0,0,1,1.36,1c3.54,3.16,6.3,7.33,8.65,11.14a104.4,104.4,0,0,1,5.88,11.2,81.49,81.49,0,0,1,3.94,10.47,27,27,0,0,1,.06,5.4,20.73,20.73,0,0,1-.37,2.66,13.86,13.86,0,0,1-1.28,3.58,7.17,7.17,0,0,1-3.56,3.46c-3.41,1.44-8.19-.17-12.42-2-.52-.25-1-.5-1.55-.77a31.58,31.58,0,0,1-4.46-2.87c-.31-.25-.65-.5-1-.78-1.55-1.27-3.08-2.7-4.71-4.16a42.25,42.25,0,0,0-6.54-5,31.57,31.57,0,0,0-7.87-3.22,135,135,0,0,0-16.48-3.29A237.49,237.49,0,0,0,469,561.67c-24,.31-46.63,2.16-67.18,1.32a150.06,150.06,0,0,1-36.2-5.15c-.32-.09-.63-.17-.93-.27a86.58,86.58,0,0,1-15.49-6.06c-6.91-3.37-12.65-7.49-16.27-12.25a22.2,22.2,0,0,1-3.86-7.28,21,21,0,0,1-.79-6.92,16.55,16.55,0,0,1,3.1-9.06,13.58,13.58,0,0,1,1.13-1.38c.73-.82,1.17-1.18,1.11-1.28s-.59.14-1.43.84a12,12,0,0,0-1.44,1.31,16.45,16.45,0,0,0-4,9.45,21.6,21.6,0,0,0,.52,7.54,23.87,23.87,0,0,0,3.88,8.1c3.76,5.3,9.73,9.8,16.77,13.45a85.9,85.9,0,0,0,14,6,9.4,9.4,0,0,0,1.17.38c11.39,3.65,24.57,5.72,38.58,6.28,20.83,1.05,43.62-.69,67.38-1a244.18,244.18,0,0,1,34.49,1.67,131.19,131.19,0,0,1,16,3.1,26.48,26.48,0,0,1,7,2.79,36.66,36.66,0,0,1,6,4.46l1.63,1.44c1.38,1.24,2.79,2.48,4.29,3.63l.19.12a33.13,33.13,0,0,0,6.6,3.86,39.12,39.12,0,0,0,7.24,2.32,13.44,13.44,0,0,0,7.88-.52,10.59,10.59,0,0,0,5.4-5.64,11.64,11.64,0,0,0,.44-1.11,19.77,19.77,0,0,0,.92-3.51,15.29,15.29,0,0,0,.21-2.22A33.21,33.21,0,0,0,565.71,563.37Z"/><path class="cls-17" d="M127.41,153.53a4.33,4.33,0,0,0,.15,1.86,3.49,3.49,0,0,0,1.21,1.72,8,8,0,0,0,3.74,1.36,20.07,20.07,0,0,0,4.05.17,20.42,20.42,0,0,0,4-.64,12.38,12.38,0,0,0,3.57-1.46,4.49,4.49,0,0,0,2.16-3.09,5.68,5.68,0,0,0-.57-3.12,29,29,0,0,0-2.71-4.85,21.56,21.56,0,0,0,5.18-2.55,22.19,22.19,0,0,0,2.81-1.88l.41.61c.57.84,1.32,2.1,2.4,3.63a13.68,13.68,0,0,0,2.08,2.33,4.82,4.82,0,0,0,1.61,1,3.45,3.45,0,0,0,2.2.1,7.46,7.46,0,0,0,3.41-2.45,29.63,29.63,0,0,0,2.6-3.27,16.31,16.31,0,0,0,3.2-7.56,4.5,4.5,0,0,0-4-5.34,37.21,37.21,0,0,0-5.59-.49,23.71,23.71,0,0,0,1.62-6,21.2,21.2,0,0,0,0-4.51,25,25,0,0,0,5.64,0,5.72,5.72,0,0,0,3-1,4.52,4.52,0,0,0,1.65-3.41,12.17,12.17,0,0,0-.48-3.83,19,19,0,0,0-1.39-3.78,20.1,20.1,0,0,0-2.13-3.44,7.65,7.65,0,0,0-3-2.6,3.55,3.55,0,0,0-2.08-.22,4.43,4.43,0,0,0-1.71.78c-.91.67-1.55,1.32-2.22,1.9-1.26,1.15-2.28,2.11-3,2.81a26.89,26.89,0,0,0-2.42-2.35,22.26,22.26,0,0,0-6.6-3.86c.54-.79,1.38-2.18,2.41-4.08a5.87,5.87,0,0,0,.71-3.09,4.58,4.58,0,0,0-2-3.18,12.35,12.35,0,0,0-3.5-1.61,20.26,20.26,0,0,0-4-.83,21.7,21.7,0,0,0-4,0,7.83,7.83,0,0,0-3.81,1.2,3.49,3.49,0,0,0-1.28,1.66,4.63,4.63,0,0,0-.24,1.86A28.41,28.41,0,0,0,131,95c.36,2,.67,3.53.93,4.47a24.36,24.36,0,0,0-9.89,5.09c-.63-.71-1.47-1.59-2.5-2.64-.64-.61-1.23-1.3-2.11-2a4.83,4.83,0,0,0-1.66-.88,3.64,3.64,0,0,0-2.09.1,7.86,7.86,0,0,0-3.16,2.44,20.17,20.17,0,0,0-2.33,3.31,19.25,19.25,0,0,0-1.6,3.7,12.31,12.31,0,0,0-.69,3.79,4.55,4.55,0,0,0,1.44,3.49,5.77,5.77,0,0,0,2.94,1.2c1.43.17,2.61.27,3.53.33-.16.62-.29,1.26-.43,1.89-.08.36-.17.72-.23,1.07l-.1,1.1a.61.61,0,0,1,0,.15c0,.23,0,.45-.06.67h0a22.71,22.71,0,0,0,.72,7.56c-.93.26-2.22.68-3.79,1.22-.83.31-1.72.55-2.75,1a4.86,4.86,0,0,0-1.5,1.1,3.56,3.56,0,0,0-.82,1.94,7.77,7.77,0,0,0,.82,3.9,20.21,20.21,0,0,0,2,3.52,18.81,18.81,0,0,0,2.65,3.06,12,12,0,0,0,3.12,2.26,4.45,4.45,0,0,0,3.77.21,5.78,5.78,0,0,0,2.35-2.12c1.07-1.69,1.84-3,2.27-3.9.35.27.7.55,1.07.82a24.16,24.16,0,0,0,6.47,2.89,43.53,43.53,0,0,0-1.32,4.95A28,28,0,0,0,127.41,153.53Zm2-30.71a9.41,9.41,0,0,1,2.8-5.56,8.78,8.78,0,0,1,5.68-2.41,8.09,8.09,0,0,1,5.45,1.79,8.28,8.28,0,0,1,2.83,4.43,7.73,7.73,0,0,1-.34,4.62,10.73,10.73,0,0,1-1.28,2.51l0,.05a10.34,10.34,0,0,1-1.36,1.38,8.57,8.57,0,0,1-3.44,1.89,8.25,8.25,0,0,1-4.66-.1,7.65,7.65,0,0,1-4.26-3A8.2,8.2,0,0,1,129.44,122.82Z"/></g><g id="Capa_3" data-name="Capa 3"><path class="cls-6" d="M1035.32,114a23.21,23.21,0,0,0,6.66-.08,7.85,7.85,0,0,0,6.5-9.29,13.41,13.41,0,0,0-3.12-6.58c-.41.15-.75.32-1.11.41a7.45,7.45,0,0,1-7.41-1.9,4,4,0,0,1-.82-3.05,2.09,2.09,0,0,1,2.77-1.41,13.86,13.86,0,0,1,4,1.93,18.63,18.63,0,0,1,2.65,2.73,3.81,3.81,0,0,0,.08-3.67c-2.91-8.21-11.31-10.85-18.33-5.78l-6.93,5a11.23,11.23,0,0,1,1,2c.42,1.55,1.38,1.81,2.87,1.81a19.61,19.61,0,0,1,12.61,4.31c1.54,1.24,2.54,2.79,2.08,4.84a5.43,5.43,0,0,1-4.12,4.23c-4.78,1.32-10.58-2-11.84-6.8a36.37,36.37,0,0,1-.89-4.49c-.16-1.19-.78-1.46-1.79-1.19-1.53.4-3.09.73-4.57,1.27-5.21,1.88-9.47,5.35-14,8.44a37.3,37.3,0,0,1-7.28,4.31c-4.26,1.69-7.69-.6-8.15-5.17a16.35,16.35,0,0,1,5-14.13,3,3,0,0,0,.84-1.63,14.69,14.69,0,0,1,15.16-13.4,3.09,3.09,0,0,0,2.05-.86,14.22,14.22,0,0,1,9-4.65,21.18,21.18,0,0,1,9.16,1.3,2.67,2.67,0,0,0,1.69.11c7.31-3,15.78.19,20.07,5.91a1.85,1.85,0,0,0,1,.67c6,1,11.09,8.56,9.84,15.52a2.73,2.73,0,0,0,.34,1.64,9,9,0,0,1-7.67,13.25c-.19,0-.39-.18-1-.46,3.46-.39,6.18-1.31,7.83-4.16s1.69-6.16.33-7.93a24.22,24.22,0,0,1-4.12,3.11,2.83,2.83,0,0,1-3.77-1.66,3.17,3.17,0,0,1,1.56-4,9.48,9.48,0,0,1,3.62-.35,6.42,6.42,0,0,1,1.93.75c2.26-6.69-4.58-15.13-9-14.76-.09,2.88-1.15,4.39-3.22,4.49-1.32.07-2.41-.36-2.68-1.84-.32-1.79,1-3,4.17-3.91-2.87-5.5-13.83-8.66-18.87-5.42.59.56,1.22,1.08,1.75,1.68a2.74,2.74,0,0,1,.46,3.33,3.48,3.48,0,0,1-3.49,2,3.16,3.16,0,0,1-2.9-2.06,3.44,3.44,0,0,1,.7-3.81c.39-.42.84-.78,1.3-1.2-6.42-3.13-14.67-1.45-17.83,3.62a18.16,18.16,0,0,1,1.83.69,8.07,8.07,0,0,1,1.67,1A3.39,3.39,0,0,1,1014,83a3.53,3.53,0,0,1-4.55.92,4.1,4.1,0,0,1-2.09-4.42c.14-.63.37-1.23.55-1.84-6.56-1.85-16.22,6.49-14.79,12.72a15.87,15.87,0,0,1,1.85-.59,7.51,7.51,0,0,1,2.11-.15,4.13,4.13,0,0,1,3.54,3.18,3.77,3.77,0,0,1-6.35,3.45,13.37,13.37,0,0,1-1.84-2.83,6.82,6.82,0,0,1-.4-1.34c-4.12,3.27-6.29,10.3-4.78,15.12.82,2.6,2.61,4,5.3,3.52a15.27,15.27,0,0,0,5.24-2.1c2.82-1.76,5.44-3.84,8.16-5.75,4.09-2.87,8.37-5.37,13.34-6.41l2.24-.46-1.9-3.44c-1.75.59-3.23,1.19-4.75,1.57a12.11,12.11,0,0,1-8.18-.38,3.55,3.55,0,0,1-2.34-3.11,3.65,3.65,0,0,1,2.2-3.55,7.3,7.3,0,0,1,2.65-.71,11.61,11.61,0,0,1,8.79,3.32,20.48,20.48,0,0,1,1.71,2.07c1.79-1.21,3.28-2.21,4.76-3.23s2.87-2.18,4.4-3.12a9.53,9.53,0,0,1,8.16-1.26,13.62,13.62,0,0,1,9.24,9,5.4,5.4,0,0,1,.12,3.18,2.55,2.55,0,0,0,.34,2.34,22.26,22.26,0,0,1,2.19,4.89c1.37,5.19-1.45,9.69-6.67,10.92-3.45.82-6.84.29-10.21-.55a19.1,19.1,0,0,0-8.32-.49,13.4,13.4,0,0,1-4.52,7.41c-1.27,1.11-2.66,2.08-4,3.11-4.25,3.3-5.38,6.78-3.88,12a3.76,3.76,0,0,1-.16.91,13.9,13.9,0,0,1-.65-1.29,10.33,10.33,0,0,1,3.4-11.35c1.59-1.33,3.33-2.48,4.88-3.85a12,12,0,0,0,4.19-6.86,14.32,14.32,0,0,0-6.48,1.82,38.23,38.23,0,0,1-6.09,3.15,16.32,16.32,0,0,1-6.06.73c-2.19-.14-3.57-1.71-4.11-3.89-1.16-4.62,3.69-9.39,8.8-8.77,2.75.33,5.52.51,8.29.59,4,.11,5.61,1.36,6.37,5C1027.73,112.82,1031.51,113.55,1035.32,114Zm-16-5.91a18.61,18.61,0,0,0-2.11-.21c-2.71-.2-5.43-.29-8.13-.58a8.08,8.08,0,0,0-7.72,3.89c-2,3.64.2,7.7,4.35,7.64a19.61,19.61,0,0,0,5.65-1.37,35.87,35.87,0,0,0,3.17-1.69c2.66-1.18,5.36-2.29,8.32-3.54A4,4,0,0,0,1019.35,108.07Zm4.29-5.19c1.18,4.07,6.4,7,10.54,6.1a5,5,0,0,0,4.06-3.82c.47-1.87-.59-3.25-2-4.35-4-3.14-8.6-4.24-13.89-4.08C1022.82,99,1023.09,101,1023.64,102.88ZM1008.5,87.15a3.79,3.79,0,0,0-3.54,3.27c-.06,1.43,1.17,2.77,3.16,3.24,3.83.9,7.4,0,11-1.74C1016.25,88.52,1012.9,86.63,1008.5,87.15ZM997,96.73a3.07,3.07,0,0,0,3-3.2,3.56,3.56,0,0,0-3.61-3.3c-2,0-3.6.94-3.58,2C992.87,94.58,994.94,96.8,997,96.73Zm44.21-3.18a4.72,4.72,0,0,0-2.57-.82,2.54,2.54,0,0,0-2,1,2.59,2.59,0,0,0,.45,2.17c1.51,2,5.29,2.7,8.28,1.19C1043.84,95.76,1042.6,94.54,1041.2,93.55Zm-31.4-10.17a2.63,2.63,0,0,0,3.54-.6,2.4,2.4,0,0,0-.48-3.39,10.41,10.41,0,0,0-3.29-1.66c-.85-.3-1.71,1.13-1.68,3.36A11.62,11.62,0,0,0,1009.8,83.38Zm44.88,16.28a4.34,4.34,0,0,0,4.26-3.38c0-.2,0-.59,0-.6a14.91,14.91,0,0,0-4.09-1c-1.47,0-2.16,1.28-2.29,2.75A2.24,2.24,0,0,0,1054.68,99.66Zm-26.07-19.89a3,3,0,0,0,2.86-2.65c0-1.18-2.1-3.45-3.16-3.37s-2.58,1.9-2.55,3.26A2.78,2.78,0,0,0,1028.61,79.77Zm16.26,2.52c0,1.17.76,1.61,1.8,1.65a2.71,2.71,0,0,0,2.77-2.77,4.29,4.29,0,0,0-.68-1.49C1046.58,79.63,1044.85,81,1044.87,82.29Z"/><path class="cls-6" d="M770.14,61.92a75.83,75.83,0,0,0-2-18.92,39.06,39.06,0,0,0-4.6-11.73,9,9,0,0,0-6.11-4.55,6,6,0,0,0-4.31,1.45,19.63,19.63,0,0,0-4.76,5.9,42.26,42.26,0,0,0-4.72,14.43,56,56,0,0,0-.14,15.29,32.88,32.88,0,0,0,.67,3.34A18.79,18.79,0,0,0,745.53,71a4.67,4.67,0,0,0,.91,1.27.81.81,0,0,0,.53.26c.29,0,.62-.49,1-1.42a.65.65,0,0,1,.95-.18c.62.33.78,1,.49,2a3.45,3.45,0,0,1-2.19,1.36,2.84,2.84,0,0,1-2.44-1.22,14.11,14.11,0,0,1-2.08-4.63,34.1,34.1,0,0,1-1-4.45,58.76,58.76,0,0,1,.15-15.78,44.63,44.63,0,0,1,4.93-15A21.58,21.58,0,0,1,752,26.79,7.71,7.71,0,0,1,757.6,25,10.67,10.67,0,0,1,765,30.33a41.17,41.17,0,0,1,4.83,12.26,78,78,0,0,1,2,19.37c0,1.38-.08,2.76-.17,4.14,1.29-.52,2.58-1,3.86-1.43.93.15,1.07.57.43,1.27-1.46.5-2.94,1.07-4.41,1.7a72.81,72.81,0,0,1-2.46,13.6,45.16,45.16,0,0,1-3.81,9.91,16.76,16.76,0,0,1-4.76,5.49,5.6,5.6,0,0,1-5.78.71,6.81,6.81,0,0,1-3.52-4.57,12.43,12.43,0,0,1-.23-5.22,19.42,19.42,0,0,1,1.52-4.9,28.83,28.83,0,0,1,9.61-11.47,44.82,44.82,0,0,1,7.81-4.37C770,65.19,770.11,63.56,770.14,61.92ZM763,72.38a27.19,27.19,0,0,0-9.05,10.94,17.43,17.43,0,0,0-1.38,4.48,11.25,11.25,0,0,0,.19,4.55,5.32,5.32,0,0,0,2.66,3.54,4.12,4.12,0,0,0,4.16-.57,15.32,15.32,0,0,0,4.28-5,43.92,43.92,0,0,0,3.65-9.56,72.77,72.77,0,0,0,2.29-12.37A41.89,41.89,0,0,0,763,72.38Z"/><path class="cls-6" d="M782.79,78.1a3.26,3.26,0,0,1-3.06,1.9A3.13,3.13,0,0,1,777,77.75a9.88,9.88,0,0,1-.62-2.81c-.07-.93-.09-2.24-.07-3.93v-.23c.81-.43,1.37-.36,1.67.23,0,1.45,0,2.47,0,3.07a12.37,12.37,0,0,0,.29,2.27,4.1,4.1,0,0,0,.61,1.44,1.24,1.24,0,0,0,.94.57,1.73,1.73,0,0,0,1.56-1.07,8.44,8.44,0,0,0,.82-2.2c.19-.81.33-1.57.44-2.26.08-.5.16-.9.24-1.21a2.5,2.5,0,0,1,.32-.82.86.86,0,0,1,.81-.36.72.72,0,0,1,.34.09,1,1,0,0,1,.33.34,3.08,3.08,0,0,1,.29.89,2,2,0,0,0,0,.24,12.64,12.64,0,0,0,.86,2.85,3,3,0,0,0,1.91,1.82,3.89,3.89,0,0,0,2.45-.41,16.07,16.07,0,0,0,3.63-2.4c1-.44,1.23-.12.84.94a16.91,16.91,0,0,1-3.85,2.8,5.25,5.25,0,0,1-3.42.57,4.38,4.38,0,0,1-2.78-2.25,9.38,9.38,0,0,1-.67-1.57A12.48,12.48,0,0,1,782.79,78.1Z"/><path class="cls-6" d="M797.18,77.93A5.81,5.81,0,0,1,795.36,79a2,2,0,0,1-1.31,0c-1.12-.51-1.4-1.59-.84-3.25A9.76,9.76,0,0,1,795,73a6.35,6.35,0,0,1,2.46-1.87l.27-.09.22-.07.27-.08c.13,0,.27,0,.41-.06H799a1.64,1.64,0,0,1,1.51,1,.19.19,0,0,1,0,.1.67.67,0,0,1,.41-.1.94.94,0,0,1,.31.08l.19.12a.82.82,0,0,1,.28.52,1.12,1.12,0,0,1,0,.31,2.24,2.24,0,0,1-.08.39,7.6,7.6,0,0,0-.51,3.66,1,1,0,0,0,.55.81,1.92,1.92,0,0,0,2,0A12.14,12.14,0,0,0,805.94,76a18.68,18.68,0,0,0,1.92-2.16.47.47,0,0,1,.24-.16c.37-.07.46.26.29,1a13,13,0,0,1-4,3.83,4.11,4.11,0,0,1-3.18.62,2.39,2.39,0,0,1-1.54-1.91,5.46,5.46,0,0,1-.11-1.68A24.06,24.06,0,0,1,797.18,77.93Zm1.75-5.4h0l-.42,0-.49.16a3.91,3.91,0,0,0-1.36.91,8.7,8.7,0,0,0-1.2,1.49,5.57,5.57,0,0,0-.84,1.92,1.39,1.39,0,0,0,0,.4.13.13,0,0,0,0,.06s0,0,0,0a.23.23,0,0,0,.16,0h0a2.08,2.08,0,0,0,.45-.19,9,9,0,0,0,1.49-1.19,32.55,32.55,0,0,0,2.42-2.66l-.27-.07a3.13,3.13,0,0,0,.1-.6.71.71,0,0,0,0-.14s0-.08,0-.12Z"/><path class="cls-6" d="M809.8,75.18l.07-.14A15.15,15.15,0,0,1,812.63,71a2.46,2.46,0,0,1,1.57-.7c.95,0,1.59.63,1.94,1.8a30.07,30.07,0,0,1,.48,4.4,5.49,5.49,0,0,0,.34,1.2,2,2,0,0,0,.52.74,4,4,0,0,0,3-1,14.64,14.64,0,0,0,2.79-3.17l.28-.45c.19-.18.34,0,.45.4a1.32,1.32,0,0,1-.23.86,14.67,14.67,0,0,1-3.59,3.76,4.79,4.79,0,0,1-2.95.58c-.74,0-1.29-.53-1.65-1.49a13.79,13.79,0,0,1-.55-3c-.08-.78-.19-1.49-.32-2.13a2.31,2.31,0,0,0-.28-.78.44.44,0,0,0-.08-.11l-.12-.06a.56.56,0,0,0-.4.22l0,0a5.6,5.6,0,0,0-.89,1,19,19,0,0,0-1.55,2.63c-.48,1-.87,1.78-1.16,2.45a.43.43,0,0,0-.07.16c-.21.43-.35.72-.43.86a.88.88,0,0,1-.52.44.83.83,0,0,1-.52,0,1.19,1.19,0,0,1-.3-.17.77.77,0,0,1-.17-.21.8.8,0,0,1-.09-.41l0-5.29c.5-.81,1.06-.83,1.69,0Z"/><path class="cls-6" d="M864.38,65.7a50.16,50.16,0,0,0,11.39-11.07,47.74,47.74,0,0,0,3.77-5.92,29.47,29.47,0,0,0,2.75-7.2,17.87,17.87,0,0,0-.24-9.5,11.39,11.39,0,0,0-3.81-5.61A13.66,13.66,0,0,0,872,23.62a27,27,0,0,0-13.6,1.47,36.47,36.47,0,0,0-11.87,7.2,43,43,0,0,0-4.5,4.55,22.46,22.46,0,0,0-2.37,3.46l0,.06a3.67,3.67,0,0,0-.41,2.86c0,1.35-.61,1.73-1.86,1.12a.84.84,0,0,1-.39-1,21.73,21.73,0,0,1,1.47-3.74,25,25,0,0,1,2.49-3.71,44.33,44.33,0,0,1,4.61-4.76,37.42,37.42,0,0,1,12.29-7.59A28.75,28.75,0,0,1,872.21,22a15.42,15.42,0,0,1,7.06,3.11,13.18,13.18,0,0,1,4.36,6.39,19.62,19.62,0,0,1,.29,10.38,31,31,0,0,1-2.85,7.55,48.24,48.24,0,0,1-4,6.21,51.51,51.51,0,0,1-11.76,11.47,45,45,0,0,1-10.57,5.49q-.31,6.51-.42,12.13-.11,5.1.09,8.29a14.84,14.84,0,0,0,.26,2.14l0,.16,1.17.62c-.41.73-.79,1.1-1.12,1.11a.91.91,0,0,1-.91-.31,2.65,2.65,0,0,1-.48-.92,39.26,39.26,0,0,1-.67-8.42q0-6.3.29-14.21c-.88.26-1.76.49-2.66.7a24.73,24.73,0,0,1-8.29.65,12.44,12.44,0,0,1-5.38-2,9.38,9.38,0,0,1-3.84-6.72,10.61,10.61,0,0,1,1.85-7.47,13,13,0,0,1,4.55-3.91A14.44,14.44,0,0,1,845,52.91a10.07,10.07,0,0,1,2.53.1,7.65,7.65,0,0,1,2.43.91,3.72,3.72,0,0,1,1.76,1.7,2.76,2.76,0,0,1-.42,2.59q-3.8.91-3.24-.92c.39-1.3.1-2.14-.86-2.53a8.48,8.48,0,0,0-2.09-.08,13.05,13.05,0,0,0-5.07,1.37,11.18,11.18,0,0,0-3.93,3.4,8.73,8.73,0,0,0-1.53,6.22,7.58,7.58,0,0,0,3.07,5.46,10.75,10.75,0,0,0,4.62,1.68,22.54,22.54,0,0,0,7.69-.62,29.69,29.69,0,0,0,3.13-.86q.6-12.57,1.15-20.55c0-.2,0-.38,0-.57l.09-1.37-1.56-.52a3.47,3.47,0,0,1,.43-.75c.19-.27.42-.55.67-.84a8.91,8.91,0,0,0,.7-.95.88.88,0,0,1,.27-.34.56.56,0,0,1,.25-.12.77.77,0,0,1,1,.29h0a.61.61,0,0,1,.1.15.73.73,0,0,1,.07.3s0,.08,0,.17,0,.24,0,.48c0,.56-.1,1.49-.19,2.8,0,.56-.08,1.18-.12,1.85q-.54,7.68-1.12,19.37A43.5,43.5,0,0,0,864.38,65.7Z"/><path class="cls-6" d="M881.9,77.93A5.81,5.81,0,0,1,880.08,79a2,2,0,0,1-1.31,0c-1.12-.51-1.4-1.59-.84-3.25A9.76,9.76,0,0,1,879.68,73a6.35,6.35,0,0,1,2.46-1.87l.26-.09.23-.07.26-.08c.14,0,.28,0,.42-.06h.39a1.64,1.64,0,0,1,1.51,1,.31.31,0,0,1,0,.1.67.67,0,0,1,.41-.1.94.94,0,0,1,.31.08l.19.12a.82.82,0,0,1,.28.52,1.12,1.12,0,0,1,0,.31,2.24,2.24,0,0,1-.08.39,7.48,7.48,0,0,0-.51,3.66,1,1,0,0,0,.55.81,1.92,1.92,0,0,0,2,0A11.78,11.78,0,0,0,890.65,76a17.77,17.77,0,0,0,1.93-2.16.47.47,0,0,1,.24-.16c.36-.07.46.26.29,1a13,13,0,0,1-4.05,3.83,4.11,4.11,0,0,1-3.18.62,2.39,2.39,0,0,1-1.54-1.91,5.46,5.46,0,0,1-.11-1.68A24.06,24.06,0,0,1,881.9,77.93Zm1.75-5.4h0l-.41,0-.5.16a3.88,3.88,0,0,0-1.35.91,8.7,8.7,0,0,0-1.2,1.49,5.57,5.57,0,0,0-.84,1.92,1.39,1.39,0,0,0,0,.4.13.13,0,0,0,0,.06s0,0,0,0a.21.21,0,0,0,.15,0h0a2,2,0,0,0,.44-.19,9,9,0,0,0,1.5-1.19,32.55,32.55,0,0,0,2.42-2.66l-.28-.07a2.53,2.53,0,0,0,.11-.6s0-.09,0-.14a.49.49,0,0,1,0-.12Z"/><path class="cls-6" d="M895.36,81.15a1.29,1.29,0,0,1-.15.55.84.84,0,0,1-.23.3,1,1,0,0,1-.93.22,1.22,1.22,0,0,1-.54-.38,1.75,1.75,0,0,1-.38-.88L893,79.81l-.1-1.23V70.25l.43-14.84c1.14-.57,1.6-.55,1.39.06l-.09,14.83v3.87l0-.14A21.39,21.39,0,0,1,896,70.46a8.08,8.08,0,0,1,.84-1.34,4.35,4.35,0,0,1,1.28-1.19,2,2,0,0,1,1.92-.05,2.14,2.14,0,0,1,1.06,1.6,5.69,5.69,0,0,1,0,1.75,12.53,12.53,0,0,1-.26,1.44,13.92,13.92,0,0,1-1.1,2.8,37.48,37.48,0,0,1-2,3.49q3.1-.58,8.52-4.52A2.88,2.88,0,0,1,907,74c.77-.24.94,0,.52.81q-5.34,4.53-8.78,5.46a7.3,7.3,0,0,1-2.5.51,1,1,0,0,1-.71-.29l-.08-.1Zm.15-1.83.67-1a39.41,39.41,0,0,0,2.12-3.59,13.05,13.05,0,0,0,1-2.49c0-.2.09-.46.15-.79a6.91,6.91,0,0,0,.1-1,2.1,2.1,0,0,0-.08-.77v0a.66.66,0,0,0,0-.15.29.29,0,0,0-.11-.11.38.38,0,0,0-.37,0,2.3,2.3,0,0,0-.43.34,5.1,5.1,0,0,0-.58.74,6.35,6.35,0,0,0-.38.69,17.65,17.65,0,0,0-1.22,3.29,25.29,25.29,0,0,0-.66,3.49Z"/><path class="cls-6" d="M907.1,55.91a106,106,0,0,1,1.12-14.27,11.43,11.43,0,0,1,.94-3.19,1.85,1.85,0,0,1,1.05-.91c.64-.22,1.17,0,1.6.76a5.46,5.46,0,0,1,.44,1.59,34.17,34.17,0,0,1,.11,5.6q-.4,7.62-1.58,16.82t-1.93,13.37l0,0c0,2.88,0,5.64.16,8.26.3,6,.69,10.5,1.15,13.56a9.48,9.48,0,0,0,.84,2.17l.79.56c-.14.54-.38.8-.72.79a1,1,0,0,1-.76-.29,3.83,3.83,0,0,1-.86-1.68,65.24,65.24,0,0,1-1.61-11.47q-.42-5.25-.62-11.45l0-.74h-.08a.07.07,0,0,0,0-.05c0-.11,0-.22.06-.33Q906.86,65.11,907.1,55.91Zm3-15.14q-1.44,7-1.47,22.6c0,.52,0,1.05,0,1.59.54-3.92,1-7.94,1.42-12A82.36,82.36,0,0,0,910.62,41a7.87,7.87,0,0,0-.17-1.2C910.35,40.06,910.25,40.39,910.14,40.77Z"/><path class="cls-6" d="M914.92,72c.11-1.13.46-1.79,1-2s1.43-.1,2.24.66a5.52,5.52,0,0,1,1.39,3.16,7.11,7.11,0,0,1-.73,3.71l0,.1a3.41,3.41,0,0,0,3-.17,11.68,11.68,0,0,0,3.6-3.33c.41-.51.64-.48.69.08q-3.46,5.94-7.88,4.45a2.46,2.46,0,0,1-.67.58,2.61,2.61,0,0,1-2,.33,3.75,3.75,0,0,1-2.7-2.47,6.07,6.07,0,0,1-.3-2.68,5.43,5.43,0,0,1,.81-2.41c1-.31,1.41,0,1.38,1a4.12,4.12,0,0,0-.5,3A2.33,2.33,0,0,0,916,78a1.07,1.07,0,0,0,1-.26l.16-.13A7.78,7.78,0,0,1,914.92,72Zm1.66-.49a.08.08,0,0,0,0,.06,2.09,2.09,0,0,0-.08.49,7.73,7.73,0,0,0,1.18,4.3,5.22,5.22,0,0,0,.33-2.35,3.93,3.93,0,0,0-1-2.25.74.74,0,0,0-.23-.2l-.19-.1Z"/><path class="cls-6" d="M820.51,103q-4.34,3.64-4.18-.88,5.11-5-.49-8.8a11.19,11.19,0,0,0-4.92-1.48,30.73,30.73,0,0,0-16.69,4.24A23.79,23.79,0,0,0,783,108.72a7.63,7.63,0,0,0,.54,6.13,20.07,20.07,0,0,0,7.34,6.73q4.47,2.67,9.17,4.91,3.29,1.58,6.48,3.31A52.31,52.31,0,0,1,813,134a25.16,25.16,0,0,1,5.74,5.9,10.77,10.77,0,0,1,1.78,5.4,9.85,9.85,0,0,1-1.1,4.82,16.49,16.49,0,0,1-2.8,3.93,27.42,27.42,0,0,1-8.32,5.93,27.11,27.11,0,0,1-9.91,2.57,17.48,17.48,0,0,1-3.75-.19,10.47,10.47,0,0,1-2.48-.75,8.27,8.27,0,0,1-4.52-5.1,12.35,12.35,0,0,1-.12-6.72,18.11,18.11,0,0,1,1.08-3.1c.6-1.3,1.24-2.56,1.94-3.8.08-.16.17-.32.26-.48.65-.3,1-.08,1.18.64l-.27.49c-.65,1.21-1.27,2.44-1.84,3.71a17.57,17.57,0,0,0-1,2.89,10.82,10.82,0,0,0,.16,5.9,6.8,6.8,0,0,0,3.74,4.18,9.64,9.64,0,0,0,2.66.68,16.22,16.22,0,0,0,2.87.07,25.25,25.25,0,0,0,9.29-2.47,25.83,25.83,0,0,0,7.83-5.56,15.59,15.59,0,0,0,2.51-3.54,8.33,8.33,0,0,0,.92-4,9,9,0,0,0-1.54-4.56,22.71,22.71,0,0,0-5.36-5.48,48.32,48.32,0,0,0-6.25-4.05q-3.21-1.74-6.51-3.33a103.13,103.13,0,0,1-9.22-4.93,22.06,22.06,0,0,1-8-7.37,9.22,9.22,0,0,1-.65-7.45,25.39,25.39,0,0,1,12.06-13.65,32.37,32.37,0,0,1,17.68-4.48,13.08,13.08,0,0,1,5.69,1.7,10.24,10.24,0,0,1,4,4.44,7.77,7.77,0,0,1,.82,4.06A5,5,0,0,1,820.51,103Z"/><path class="cls-6" d="M825.81,135.79c1-.37,1.36,0,1.24,1.07a5,5,0,0,0-1.31,2.74,3.37,3.37,0,0,0,.89,2.67,2.94,2.94,0,0,0,1.65.72,5.8,5.8,0,0,0,2.49-.24,7.47,7.47,0,0,0,1.67-.84,11.89,11.89,0,0,0,2.61-2.48,1.33,1.33,0,0,1,.29-.25c.52-.26.73-.06.65.58a2.48,2.48,0,0,1-.51,1,12.56,12.56,0,0,1-2.2,2.32,7.62,7.62,0,0,1-2,1,6.82,6.82,0,0,1-3.44.28,4.28,4.28,0,0,1-2.28-1.09,4.93,4.93,0,0,1-1.36-3.9A6.55,6.55,0,0,1,825.81,135.79Zm3.79-2.68a3.45,3.45,0,0,1-1.29.9c-.44.16-.77.14-1,0s-.21-.52-.05-1a3.62,3.62,0,0,1,.87-1.3,3.47,3.47,0,0,1,1.31-.89c.44-.16.76-.15,1,0s.21.51.05,1A3.45,3.45,0,0,1,829.6,133.11Z"/><path class="cls-6" d="M854,135.74c-.48-.08-1-.17-1.43-.27-.32-.07-.73-.18-1.22-.32a4.45,4.45,0,0,1-1.32-.61,2,2,0,0,1-.72-.91,1.74,1.74,0,0,1,.12-1.32,3.25,3.25,0,0,1,.84-1.05,8.61,8.61,0,0,1,1.12-.77,10.75,10.75,0,0,1,3.63-1.38,10.32,10.32,0,0,1,3.91-.06c1.36.32,2.17.91,2.44,1.76a2.94,2.94,0,0,1,0,1.72,7.3,7.3,0,0,1-1.44,2.63,42.21,42.21,0,0,1,4.46.84,12.42,12.42,0,0,1,5.34,2.51,5.18,5.18,0,0,1,1.15,1.44,4.85,4.85,0,0,1-.22,4.63,13.43,13.43,0,0,1-.84,1.41,22.9,22.9,0,0,1-8.12,6.92c-1.71,0-2.13-.69-1.27-2a15.31,15.31,0,0,0,8.19-5.78,11.36,11.36,0,0,0,.75-1.24,3.41,3.41,0,0,0,.19-3.26,4.09,4.09,0,0,0-.82-1,11.15,11.15,0,0,0-4.69-2.17q-2.61-.6-5.26-.94a24.55,24.55,0,0,1-7.74,5.75q-7.75,3.53-12.79,1.38-2.82-1.35-2.9-3.54a4.66,4.66,0,0,1,2-3.95,7.2,7.2,0,0,1,4.6-1.6c.22,0,.43,0,.64.09a3.89,3.89,0,0,1,.49.12q.92.35,1,.87a1.37,1.37,0,0,1-.23,1.17,4.3,4.3,0,0,1-1,.94,6.77,6.77,0,0,1-.91.59,19.56,19.56,0,0,1-2.18,1,13.09,13.09,0,0,1-3,.81,3,3,0,0,0,2,2.13q4.53,1.91,11.58-1.34a24,24,0,0,0,6.59-4.69C856,136.09,855,135.92,854,135.74Zm-11.64.33a2.42,2.42,0,0,0-.47-.07,5.63,5.63,0,0,0-3.6,1.29,4,4,0,0,0-1.1,1.27,9.81,9.81,0,0,0,2.09-.62,22.2,22.2,0,0,0,2-.93,4.56,4.56,0,0,0,.42-.26,5.62,5.62,0,0,0,.56-.41,2.72,2.72,0,0,0,.24-.24Zm16.43-1.8a7.12,7.12,0,0,0,1.1-1.81,1.68,1.68,0,0,0,.1-1.15c-.16-.41-.61-.68-1.35-.82a8.62,8.62,0,0,0-3.35.06,9.48,9.48,0,0,0-3.13,1.19l-.15.09c-.24.15-.48.31-.71.48a1.6,1.6,0,0,0-.53.63.26.26,0,0,0,0,.34,1.55,1.55,0,0,0,.34.23,3.91,3.91,0,0,0,.83.3l.77.18.15,0c.45.11.9.2,1.36.28,1.28.22,2.57.41,3.86.58l.12,0Z"/><path class="cls-6" d="M878.93,131.71c-1.13.24-2.18.43-3.14.58a7,7,0,0,1-2.23,0,1.74,1.74,0,0,1-1.2-.73,2.28,2.28,0,0,1,.27-2.61,6.9,6.9,0,0,1,2.73-2.08,8.14,8.14,0,0,1,3.78-.79,3.46,3.46,0,0,1,2.87,1.37,3.26,3.26,0,0,1,.51,2c.28,0,.54,0,.78-.05a4,4,0,0,1,2.14.36c1,.64,1.39,1.75,1.1,3.34a31.23,31.23,0,0,1-2.64,6.7,28.23,28.23,0,0,0-2.51,6.39,1.42,1.42,0,0,0,1.36,2.16,8.09,8.09,0,0,0,1.87-.22,22,22,0,0,0,6.49-2.85,31.6,31.6,0,0,0,6.56-5.36,4,4,0,0,1,1.05-.84c1-.22,1.2.22.7,1.32a35,35,0,0,1-7.56,6.3,23.69,23.69,0,0,1-6.88,3c-1.92.39-3.28.3-4.07-.26-1-.72-1.37-1.88-1.1-3.5a29.79,29.79,0,0,1,2.64-6.82l.16-.34a26.91,26.91,0,0,0,2.35-5.94,3.42,3.42,0,0,0,.08-1,.83.83,0,0,0-.42-.66,1.56,1.56,0,0,0-.84-.16,9.8,9.8,0,0,0-1.55.11,16.52,16.52,0,0,1-2.54,4.68,28.42,28.42,0,0,1-2.64,3,6.57,6.57,0,0,1-1.48,1.17c-1,.27-1.42.17-1.41-.33a26.71,26.71,0,0,0,6.27-8.26Zm1.76-3.33a2,2,0,0,0-1.65-.67,6.1,6.1,0,0,0-2.58.43,6.68,6.68,0,0,0-2.11,1.3,3,3,0,0,0-.57.72.62.62,0,0,0-.08.53.69.69,0,0,0,.18.05.73.73,0,0,0,.25,0,13,13,0,0,0,2.81-.31c.56-.1,1.14-.22,1.72-.34l2.25-.43A1.83,1.83,0,0,0,880.69,128.38Z"/><path class="cls-6" d="M901.74,143.23a5.81,5.81,0,0,1-1.82,1.11,2,2,0,0,1-1.31,0c-1.12-.51-1.4-1.59-.84-3.25a9.9,9.9,0,0,1,1.75-2.83,6.35,6.35,0,0,1,2.46-1.87l.26-.09.23-.07.26-.08.42-.05h.39a1.62,1.62,0,0,1,1.51,1,.47.47,0,0,1,.05.1.75.75,0,0,1,.41-.1.94.94,0,0,1,.31.08l.19.12a.85.85,0,0,1,.28.52,1.19,1.19,0,0,1,0,.32,2.33,2.33,0,0,1-.08.38,7.48,7.48,0,0,0-.51,3.66,1,1,0,0,0,.55.81,1.9,1.9,0,0,0,2,0,12.14,12.14,0,0,0,2.25-1.68,17.87,17.87,0,0,0,1.92-2.16.54.54,0,0,1,.24-.16c.36-.06.46.26.29,1a13,13,0,0,1-4.05,3.83,4.11,4.11,0,0,1-3.18.62,2.39,2.39,0,0,1-1.54-1.91,5.42,5.42,0,0,1-.11-1.68A24.06,24.06,0,0,1,901.74,143.23Zm1.75-5.4h0l-.42,0-.5.16a3.92,3.92,0,0,0-1.35.92,8.26,8.26,0,0,0-1.2,1.48,5.53,5.53,0,0,0-.84,1.93,1.33,1.33,0,0,0,0,.39.13.13,0,0,0,0,.06s0,0,0,0a.26.26,0,0,0,.15,0l0,0a2,2,0,0,0,.44-.19,9.47,9.47,0,0,0,1.5-1.18,32.63,32.63,0,0,0,2.42-2.67l-.27-.07a3.13,3.13,0,0,0,.1-.6.57.57,0,0,0,0-.13.57.57,0,0,1,0-.12Z"/><path class="cls-6" d="M926.57,128.6q-.54-10.8-3-36,1.9-2.62,3.63-.09.12,17.33,1,34.64A69.06,69.06,0,0,1,931,116.72a45.18,45.18,0,0,1,8.36-14.87,28.19,28.19,0,0,1,8.77-7.16,13.38,13.38,0,0,1,7.64-1.27q5,.89,6.68,4.79a15.11,15.11,0,0,1,1.28,5.89,26.16,26.16,0,0,1-.54,6.09A46.64,46.64,0,0,1,956,126.56,99.13,99.13,0,0,1,938,146.11q-3.08,2.61-6.3,5l-2.39,1.78c0,1.09,0,2.18.07,3.26a113.81,113.81,0,0,1,12-3.14,108.44,108.44,0,0,1,17-2.06c.71.41.73.86,0,1.34a104.77,104.77,0,0,0-16.78,2.13,115.64,115.64,0,0,0-12.26,3.3c0,1.81.06,3.61.07,5.42,0,.23,0,.52,0,.86s0,.6,0,.76,0,.19,0,.22a.87.87,0,0,1-.26.46.84.84,0,0,1-.35.18l-.24,0a.62.62,0,0,1-.26,0,.65.65,0,0,1-.32-.16,1,1,0,0,1-.26-.42,1.08,1.08,0,0,1,0-.22v-.14c0-.49,0-1,0-1.48s-.11-.95-.17-1.28-.11-.61-.17-.86-.14-.62-.21-1-.11-.87-.17-1.48v-.07l-1.58.57-6.64,2.61a7.46,7.46,0,0,0-1.19.65,6.87,6.87,0,0,1-1.37.74,1.9,1.9,0,0,1-1.91-.28.89.89,0,0,1-.36-.75.88.88,0,0,1,.28-.65,2.94,2.94,0,0,1,.3-.22l.4-.23.45-.24,1.68-1.13,4-2.79.56-.39c1.7-1.19,3.38-2.39,5.07-3.61,0-.88,0-1.77,0-2.66q0-4.26.15-8.43c.06-1.45.14-2.92.24-4.39Zm-3.68,28.86-1,.69-2.22,1.56,5.19-2,2-.7-.12-2.23Zm6.34-6.52c.49-.36,1-.72,1.47-1.1,2.12-1.59,4.19-3.25,6.2-5a97.88,97.88,0,0,0,17.76-19.23,45.42,45.42,0,0,0,6.9-15.78,24.65,24.65,0,0,0,.52-5.58A13.29,13.29,0,0,0,960.94,99q-1.35-3.17-5.39-3.87a11.78,11.78,0,0,0-6.7,1.13,26.54,26.54,0,0,0-8.2,6.75,44.06,44.06,0,0,0-8,14.32,79.55,79.55,0,0,0-3.9,19.84q.3,6.56.5,13.11Z"/><path class="cls-6" d="M966.92,143.4a3.29,3.29,0,0,1-3.06,1.91,3.17,3.17,0,0,1-2.75-2.25,10,10,0,0,1-.62-2.82c-.06-.93-.09-2.24-.06-3.93v-.22c.81-.44,1.36-.37,1.66.22,0,1.45,0,2.48,0,3.07a11.56,11.56,0,0,0,.29,2.27,4.28,4.28,0,0,0,.6,1.44,1.26,1.26,0,0,0,1,.57,1.76,1.76,0,0,0,1.56-1.07,8.8,8.8,0,0,0,.81-2.2c.19-.81.34-1.56.44-2.26q.12-.74.24-1.2a2.33,2.33,0,0,1,.33-.83.89.89,0,0,1,.8-.36.67.67,0,0,1,.35.1.92.92,0,0,1,.32.33,3.12,3.12,0,0,1,.3.89,1,1,0,0,0,0,.24,11.68,11.68,0,0,0,.86,2.85,2.94,2.94,0,0,0,1.9,1.82,3.86,3.86,0,0,0,2.46-.41,15.71,15.71,0,0,0,3.62-2.4c1-.44,1.23-.12.84.94a16.58,16.58,0,0,1-3.84,2.8,5.27,5.27,0,0,1-3.42.57,4.3,4.3,0,0,1-2.78-2.25,8.53,8.53,0,0,1-.67-1.56A12.71,12.71,0,0,1,966.92,143.4Z"/><path class="cls-6" d="M979.81,135.79c1-.37,1.36,0,1.24,1.07a5,5,0,0,0-1.31,2.74,3.37,3.37,0,0,0,.89,2.67,2.94,2.94,0,0,0,1.65.72,5.8,5.8,0,0,0,2.49-.24,7.47,7.47,0,0,0,1.67-.84,11.89,11.89,0,0,0,2.61-2.48,1.33,1.33,0,0,1,.29-.25c.52-.26.73-.06.65.58a2.48,2.48,0,0,1-.51,1,12.56,12.56,0,0,1-2.2,2.32,7.62,7.62,0,0,1-2,1,6.82,6.82,0,0,1-3.44.28,4.28,4.28,0,0,1-2.28-1.09,4.93,4.93,0,0,1-1.36-3.9A6.55,6.55,0,0,1,979.81,135.79Zm3.79-2.68a3.45,3.45,0,0,1-1.29.9c-.44.16-.77.14-1,0s-.21-.52-.05-1a3.62,3.62,0,0,1,.87-1.3,3.47,3.47,0,0,1,1.31-.89c.44-.16.76-.15,1,0s.21.51.05,1A3.45,3.45,0,0,1,983.6,133.11Z"/><path class="cls-6" d="M994.56,149.75h0c-.31-.1-.71-.25-1.21-.46a5.91,5.91,0,0,1-1.33-.76,1.81,1.81,0,0,1-.79-1.71,2.47,2.47,0,0,1,.48-1.08,7.73,7.73,0,0,1,1.36-1.33l.14-.12c.38-.32.78-.63,1.18-.94l1.31-1a13.77,13.77,0,0,0,1.45-1.41l.09-.08a5.52,5.52,0,0,0,.79-1,2.22,2.22,0,0,0,.2-.41.7.7,0,0,0,0-.43,1,1,0,0,0-.38-.41,1.68,1.68,0,0,0-.71-.26,9.11,9.11,0,0,0-3.94.45,19.27,19.27,0,0,0-1.81.74,4.15,4.15,0,0,1-1.22.41c-.72.06-1-.17-.8-.67a2.38,2.38,0,0,1,1.15-1.2,18.92,18.92,0,0,1,2.16-.88,10.89,10.89,0,0,1,4.71-.51,3.27,3.27,0,0,1,1.64.72,2.31,2.31,0,0,1,.62,2.95,7.23,7.23,0,0,1-1.27,1.74,18.22,18.22,0,0,1-1.63,1.54c-.42.36-.86.71-1.3,1.05s-.8.63-1.19,1l-.17.14a7.67,7.67,0,0,0-.77.68,1.4,1.4,0,0,0-.45.64.36.36,0,0,0,.07.09l.1.12a3.85,3.85,0,0,0,.77.44,11,11,0,0,0,1.19.47l.12.05a4.42,4.42,0,0,1,1.73,1q1.89-2,4-3.83c1.16-1,2.49-2.06,4-3.15s3.12-2.14,4.87-3.21c.95-.21,1.17.16.64,1.12-1.7,1.06-3.26,2.13-4.71,3.19s-2.75,2.13-3.88,3.13q-2.13,1.91-4,4a5.17,5.17,0,0,1,.46,1.44,13.87,13.87,0,0,1-.82,6.65,31.65,31.65,0,0,1-3,6.31,23.24,23.24,0,0,1-3.74,4.78c-1.32,1.18-2.46,1.71-3.42,1.58a2.1,2.1,0,0,1-1.89-1.77q-.48-2.4,2.08-7.42a60.26,60.26,0,0,1,8.31-11.59A3,3,0,0,0,994.56,149.75Zm-4.29,10.46c-2.26,3.7-3.4,6.52-3.44,8.47q0,.85.6,1a1.36,1.36,0,0,0,.76-.19,6.27,6.27,0,0,0,1.34-1A21.51,21.51,0,0,0,993,164a30.52,30.52,0,0,0,2.79-5.93,12.16,12.16,0,0,0,.76-5.82,2.46,2.46,0,0,0-.09-.39A63.07,63.07,0,0,0,990.27,160.21Z"/></g></g></svg>